<?xml version="1.0" encoding="utf-8"?>
<!-- Generator: Adobe Illustrator 25.0.1, SVG Export Plug-In . SVG Version: 6.00 Build 0)  -->
<svg version="1.1" id="Layer_1" xmlns="http://www.w3.org/2000/svg" xmlns:xlink="http://www.w3.org/1999/xlink" x="0px" y="0px"
	 viewBox="0 0 318.8 247.4" style="enable-background:new 0 0 318.8 247.4;" xml:space="preserve">
<style type="text/css">
	.st0{fill:#1D1D1B;}
</style>
<g>
	<g>
		<path class="st0" d="M194.8,205.4c0.9-23.1,1.6-46.2,1.9-69.4c0.3-23.1,0.3-46.1-0.1-69.2c-0.2-13-0.5-26.1-0.9-39.1
			c-0.1-2.6-1.1-5.2-2.9-7.1c-1.7-1.7-4.6-3-7.1-2.9c-5.3,0.2-10.2,4.4-10,10c0.7,23.2,1.1,46.3,1.2,69.5
			c0.1,23.1-0.2,46.1-0.8,69.2c-0.3,13-0.8,26-1.3,39c-0.2,5.2,4.8,10.2,10,10C190.4,215.2,194.6,211,194.8,205.4L194.8,205.4z"/>
	</g>
</g>
<g>
	<g>
		<path class="st0" d="M91,106c-17.8,12.7-36.6,23.8-56.3,33.3c-5.6,2.7-11.2,5.2-16.8,7.6c0.8-0.3,1.6-0.7,2.4-1
			c-0.4,0.2-0.8,0.4-1.3,0.5c-2.5,1.1-4.5,2.1-6,4.6c-1.3,2.1-1.8,5.3-1,7.7c0.8,2.4,2.3,4.8,4.6,6c2.2,1.2,5.3,2,7.7,1
			c21.2-8.9,41.7-19.4,61.1-31.8c5.3-3.4,10.5-6.9,15.7-10.6c2.2-1.5,3.9-3.3,4.6-6c0.7-2.4,0.4-5.6-1-7.7c-1.4-2.1-3.4-4-6-4.6
			C96.2,104.4,93.1,104.4,91,106L91,106z"/>
	</g>
</g>
<g>
	<g>
		<path class="st0" d="M73.5,197.1c-1.5-18.3-3.3-36.5-5.3-54.7c-2.1-18.9-4.5-37.7-7.2-56.5c-1.5-10.2-3-20.4-4.6-30.6
			c-0.4-2.3-2.7-4.8-4.6-6c-2.1-1.3-5.3-1.8-7.7-1c-2.4,0.8-4.8,2.3-6,4.6c-0.3,0.8-0.7,1.6-1,2.4c-0.5,1.8-0.5,3.5,0,5.3
			c2.4,14.8,4.6,29.7,6.6,44.6c-0.1-0.9-0.2-1.8-0.4-2.7c3.3,24.6,6.1,49.2,8.4,73.8c0.6,6.9,1.2,13.8,1.8,20.7
			c0.2,2.7,1,5.1,2.9,7.1c1.7,1.7,4.6,3,7.1,2.9c2.6-0.1,5.3-1,7.1-2.9C72.3,202.4,73.7,199.8,73.5,197.1L73.5,197.1z"/>
	</g>
</g>
<g>
	<g>
		<path class="st0" d="M91.1,19.2c-0.9,27.2-1.3,54.4-1.4,81.7c-0.1,27.1,0.2,54.1,1,81.2c0.4,15.3,0.9,30.5,1.6,45.7
			c0.1,2.6,1,5.2,2.9,7.1c1.7,1.7,4.6,3,7.1,2.9c2.6-0.1,5.3-1,7.1-2.9c1.8-1.9,3-4.4,2.9-7.1c-1.2-27.2-1.9-54.4-2.3-81.6
			c-0.4-27.1-0.3-54.1,0.1-81.2c0.2-15.3,0.6-30.5,1.1-45.8c0.2-5.2-4.7-10.2-10-10C95.6,9.4,91.3,13.6,91.1,19.2L91.1,19.2z"/>
	</g>
</g>
<g>
	<g>
		<path class="st0" d="M148.4,159.7c5.2-3.3,9.7-7.8,13.6-12.6c2.4-3,4.8-6,6.7-9.3c1.7-2.9,3.2-6.1,4-9.5c1-4.6,0.8-9.1-1.5-13.3
			c-2.2-4-6.5-6.8-10.9-7.9c-5.4-1.3-10.7-0.8-16.1,0c-1.3,0.2-2.6,0.4-3.8,0.7c-1.8,0.4-3.6,1.4-5.3,2.3c-1.6,0.9-3.2,1.9-4.6,3.1
			c-4.1,3.1-7.4,6.4-10.4,10.7c-2.3,3.3-3.9,7.1-5.1,10.9c-2.2,7.4-2.1,15.4-0.3,22.9c1.8,7.3,5.5,14.1,10.6,19.6
			c4.7,5.2,11.4,9.4,18.3,10.8c8.6,1.8,17.1,0.2,24.8-4c9.3-5.1,16.5-13.7,22.2-22.5c1.6-2.5,3.1-5.1,4.5-7.7c1.3-2.3,1.7-5.1,1-7.7
			c-0.6-2.3-2.4-4.8-4.6-6c-4.6-2.5-11-1.3-13.7,3.6c-2.5,4.6-5.2,9.1-8.4,13.3c0.5-0.7,1-1.3,1.6-2c-2.9,3.7-6.1,7.2-9.9,10.1
			c0.7-0.5,1.3-1,2-1.6c-2.4,1.8-4.9,3.4-7.7,4.6c0.8-0.3,1.6-0.7,2.4-1c-2.1,0.9-4.3,1.5-6.6,1.8c0.9-0.1,1.8-0.2,2.7-0.4
			c-2,0.3-4.1,0.3-6.1,0c0.9,0.1,1.8,0.2,2.7,0.4c-2-0.3-4-0.8-5.9-1.6c0.8,0.3,1.6,0.7,2.4,1c-2-0.9-4-2-5.7-3.4
			c0.7,0.5,1.3,1,2,1.6c-2.1-1.6-3.9-3.5-5.5-5.5c0.5,0.7,1,1.3,1.6,2c-1.8-2.4-3.3-5-4.5-7.7c0.3,0.8,0.7,1.6,1,2.4
			c-1.3-3-2.1-6.2-2.6-9.4c0.1,0.9,0.2,1.8,0.4,2.7c-0.4-2.9-0.4-5.9,0-8.8c-0.1,0.9-0.2,1.8-0.4,2.7c0.4-2.7,1.1-5.4,2.1-7.9
			c-0.3,0.8-0.7,1.6-1,2.4c1-2.4,2.3-4.6,3.9-6.6c-0.5,0.7-1,1.3-1.6,2c1.7-2.2,3.7-4.1,5.9-5.8c-0.7,0.5-1.3,1-2,1.6
			c2.1-1.6,4.4-3,6.8-4.2c-0.8,0.3-1.6,0.7-2.4,1c1.7-0.4,3.5-0.7,5.2-0.9c-0.9,0.1-1.8,0.2-2.7,0.4c2.8-0.4,5.7-0.6,8.6-0.2
			c-0.9-0.1-1.8-0.2-2.7-0.4c1.1,0.2,2.2,0.4,3.3,0.9c-0.8-0.3-1.6-0.7-2.4-1c0.6,0.3,1.1,0.6,1.6,0.9c-0.7-0.5-1.3-1-2-1.6
			c0.4,0.3,0.7,0.6,1,1c-0.5-0.7-1-1.3-1.6-2c0.3,0.4,0.6,0.8,0.7,1.3c-0.3-0.8-0.7-1.6-1-2.4c0.2,0.5,0.3,1,0.4,1.6
			c-0.1-0.9-0.2-1.8-0.4-2.7c0.1,0.8,0.1,1.6,0,2.5c0.1-0.9,0.2-1.8,0.4-2.7c-0.2,1.5-0.7,3-1.3,4.5c0.3-0.8,0.7-1.6,1-2.4
			c-1.5,3.5-3.6,6.7-5.9,9.7c0.5-0.7,1-1.3,1.6-2c-3.1,4-6.7,7.8-10.7,11c0.7-0.5,1.3-1,2-1.6c-0.6,0.5-1.3,0.9-1.9,1.4
			c-2.2,1.4-3.9,3.4-4.6,6c-0.7,2.4-0.4,5.6,1,7.7C137.5,160.5,143.6,162.7,148.4,159.7L148.4,159.7z"/>
	</g>
</g>
<g>
	<g>
		<path class="st0" d="M213.4,22.5c-2.2,21.1-4,42.2-5.5,63.3c-1.5,21.1-2.6,42.3-3.3,63.5c-0.4,11.9-0.7,23.8-0.9,35.7
			c-0.1,5.2,4.7,10.2,10,10c5.5-0.2,9.9-4.4,10-10c0.3-21.2,1-42.3,2.1-63.5c1-21.2,2.5-42.3,4.2-63.4c1-11.9,2.1-23.7,3.3-35.6
			c0.2-2.4-1.3-5.4-2.9-7.1c-1.7-1.7-4.6-3-7.1-2.9c-2.6,0.1-5.3,1-7.1,2.9C214.4,17.5,213.7,19.7,213.4,22.5L213.4,22.5z"/>
	</g>
</g>
<g>
	<g>
		<path class="st0" d="M260.9,88.4c-7.2,2.5-13.9,6.6-18.8,12.4c-4.7,5.7-8.2,12.2-10,19.4c-3.3,13.3-1.8,28.3,5.2,40.3
			c3.4,5.9,8.3,11.1,14.3,14.5c6.3,3.6,13.8,5.2,21,4.5c4.2-0.4,8.4-1.2,12.4-2.7c5.2-2,9.1-6.5,12.3-10.8c2.5-3.3,4.2-6.9,5.7-10.7
			c1.3-3.2,2.2-6.5,2.7-9.9c0.6-4.2,1-8.3,0.6-12.5c-0.3-2.4-0.6-4.9-1.2-7.2c-0.6-2.3-1.5-4.5-2.4-6.7c-1.6-3.6-4-7-6.8-9.8
			c-3.6-3.5-7.7-5.9-12.3-7.7c-1.7-0.7-3.5-1.2-5.4-1.5c-2.7-0.5-5.3-0.4-7.7,1c-2.1,1.2-4.1,3.6-4.6,6c-0.6,2.6-0.5,5.4,1,7.7
			c1.3,2.1,3.4,4.1,6,4.6c2,0.4,4,0.9,5.9,1.7c-0.8-0.3-1.6-0.7-2.4-1c1.9,0.8,3.6,1.8,5.2,3c-0.7-0.5-1.3-1-2-1.6
			c1.6,1.2,3,2.6,4.2,4.2c-0.5-0.7-1-1.3-1.6-2c1.3,1.7,2.3,3.5,3.2,5.5c-0.3-0.8-0.7-1.6-1-2.4c1.1,2.5,1.7,5.2,2.1,7.9
			c-0.1-0.9-0.2-1.8-0.4-2.7c0.4,3.4,0.4,6.8,0,10.2c0.1-0.9,0.2-1.8,0.4-2.7c-0.5,3.8-1.5,7.4-3,10.9c0.3-0.8,0.7-1.6,1-2.4
			c-1.3,2.9-2.8,5.7-4.8,8.3c0.5-0.7,1-1.3,1.6-2c-1.5,1.9-3.2,3.7-5.1,5.2c0.7-0.5,1.3-1,2-1.6c-0.3,0.2-0.6,0.5-0.9,0.7
			c0.8-0.3,1.6-0.7,2.4-1c-2.8,1.1-5.8,1.8-8.8,2.2c0.9-0.1,1.8-0.2,2.7-0.4c-2.6,0.3-5.2,0.4-7.8,0c0.9,0.1,1.8,0.2,2.7,0.4
			c-2.2-0.3-4.4-0.9-6.5-1.7c0.8,0.3,1.6,0.7,2.4,1c-2-0.9-4-2-5.7-3.3c0.7,0.5,1.3,1,2,1.6c-2-1.5-3.7-3.3-5.2-5.3
			c0.5,0.7,1,1.3,1.6,2c-1.8-2.4-3.3-5.1-4.5-7.9c0.3,0.8,0.7,1.6,1,2.4c-1.5-3.5-2.4-7.2-3-11c0.1,0.9,0.2,1.8,0.4,2.7
			c-0.6-4.1-0.6-8.3,0-12.5c-0.1,0.9-0.2,1.8-0.4,2.7c0.5-3.7,1.5-7.3,2.9-10.8c-0.3,0.8-0.7,1.6-1,2.4c1.2-2.9,2.8-5.6,4.7-8.1
			c-0.5,0.7-1,1.3-1.6,2c1.7-2.2,3.7-4.2,5.9-5.9c-0.7,0.5-1.3,1-2,1.6c2.2-1.7,4.6-3.1,7.2-4.2c-0.8,0.3-1.6,0.7-2.4,1
			c0.7-0.3,1.3-0.5,2-0.8c2.5-0.9,4.6-2.3,6-4.6c1.3-2.1,1.8-5.3,1-7.7c-0.8-2.4-2.3-4.8-4.6-6C266.3,88.2,263.4,87.5,260.9,88.4
			L260.9,88.4z"/>
	</g>
</g>
</svg>
