<?xml version="1.0" encoding="utf-8"?>
<!-- Generator: Adobe Illustrator 25.0.1, SVG Export Plug-In . SVG Version: 6.00 Build 0)  -->
<svg version="1.1" id="Layer_1" xmlns="http://www.w3.org/2000/svg" xmlns:xlink="http://www.w3.org/1999/xlink" x="0px" y="0px"
	 viewBox="0 0 320 320" style="enable-background:new 0 0 320 320;" xml:space="preserve">
<style type="text/css">
	.st0{fill:#212121;}
</style>
<desc>Created with Sketch.</desc>
<desc>Created with Sketch.</desc>
<desc>Created with Sketch.</desc>
<g id="_xD83D__xDD0D_-System-Icons">
	<g id="ic_fluent_add_circle_24_regular">
		<path id="_xD83C__xDFA8_-Color" class="st0" d="M160,32c70.7,0,128,57.3,128,128s-57.3,128-128,128S32,230.7,32,160
			S89.3,32,160,32z M160,51.2C99.9,51.2,51.2,99.9,51.2,160S99.9,268.8,160,268.8S268.8,220.1,268.8,160S220.1,51.2,160,51.2z
			 M160,96c5.3,0,9.6,4.3,9.6,9.6v44.8h44.8c5.3,0,9.6,4.3,9.6,9.6s-4.3,9.6-9.6,9.6h-44.8v44.8c0,5.3-4.3,9.6-9.6,9.6
			s-9.6-4.3-9.6-9.6v-44.8h-44.8c-5.3,0-9.6-4.3-9.6-9.6s4.3-9.6,9.6-9.6h44.8v-44.8C150.4,100.3,154.7,96,160,96z"/>
	</g>
</g>
</svg>
