<?xml version="1.0" encoding="utf-8"?>
<!-- Generator: Adobe Illustrator 25.0.1, SVG Export Plug-In . SVG Version: 6.00 Build 0)  -->
<svg version="1.1" id="Layer_1" xmlns="http://www.w3.org/2000/svg" xmlns:xlink="http://www.w3.org/1999/xlink" x="0px" y="0px"
	 viewBox="0 0 320 320" style="enable-background:new 0 0 320 320;" xml:space="preserve">
<style type="text/css">
	.st0{fill:#212121;}
</style>
<desc>Created with Sketch.</desc>
<desc>Created with Sketch.</desc>
<desc>Created with Sketch.</desc>
<desc>Created with Sketch.</desc>
<desc>Created with Sketch.</desc>
<desc>Created with Sketch.</desc>
<desc>Created with Sketch.</desc>
<g id="_xD83D__xDD0D_-Product-Icons">
	<g id="ic_fluent_warning_24_regular">
		<path id="_xD83C__xDFA8_-Color" class="st0" d="M145,37.4c14.3-7.9,32.1-3.3,40.9,10.2l1.1,1.9L293.7,242c2.5,4.6,3.9,9.7,3.9,15
			c0,16.4-12.7,29.8-28.8,30.9l-2.1,0.1H53.4c-5.2,0-10.4-1.3-15-3.9c-14.3-7.9-19.9-25.5-13.1-40.1l1-2L132.9,49.5
			C135.7,44.4,139.9,40.2,145,37.4z M275.6,252L169,59.5c-2.8-5-9-6.8-14-4c-1.3,0.7-2.4,1.7-3.2,2.8l-0.8,1.2L44.4,252
			c-2.8,5-1,11.3,4,14c1.1,0.6,2.4,1,3.7,1.2l1.3,0.1h213.2c5.7,0,10.3-4.6,10.3-10.3c0-1.3-0.2-2.6-0.7-3.8L275.6,252L169,59.5
			L275.6,252z M160,219.1c7.6,0,13.7,6.1,13.7,13.7s-6.1,13.7-13.7,13.7c-7.6,0-13.7-6.1-13.7-13.7S152.4,219.1,160,219.1z
			 M159.9,116c5.2,0,9.5,3.9,10.2,8.9l0.1,1.4l0,61.9c0,5.7-4.6,10.3-10.3,10.3c-5.2,0-9.5-3.9-10.2-8.9l-0.1-1.4l0-61.9
			C149.6,120.6,154.2,116,159.9,116z"/>
	</g>
</g>
</svg>
