<?xml version="1.0" encoding="utf-8"?>
<!-- Generator: Adobe Illustrator 26.0.3, SVG Export Plug-In . SVG Version: 6.00 Build 0)  -->
<svg version="1.1" id="Layer_1" xmlns="http://www.w3.org/2000/svg" xmlns:xlink="http://www.w3.org/1999/xlink" x="0px" y="0px"
	 viewBox="0 0 320 320" style="enable-background:new 0 0 320 320;" xml:space="preserve">
<style type="text/css">
	.st0{fill:#212121;}
</style>
<desc>Created with Sketch.</desc>
<desc>Created with Sketch.</desc>
<desc>Created with Sketch.</desc>
<g>
	<g id="_xD83D__xDD0D_-System-Icons">
		<g id="ic_fluent_add_circle_24_regular">
			<path id="_xD83C__xDFA8_-Color" class="st0" d="M160,32c70.7,0,128,57.3,128,128s-57.3,128-128,128S32,230.7,32,160
				S89.3,32,160,32z M160,51.2C99.9,51.2,51.2,99.9,51.2,160S99.9,268.8,160,268.8S268.8,220.1,268.8,160S220.1,51.2,160,51.2z"/>
		</g>
	</g>
	<path class="st0" d="M138.8,129.2c3.6-3.6,3.6-9.3,0-12.9s-9.3-3.6-12.9,0l-27.2,27.2c-3.6,3.5-3.6,9.3,0,12.8c0,0,0,0,0,0
		l27.2,27.2c3.6,3.6,9.3,3.6,12.9,0c3.6-3.6,3.6-9.3,0-12.9L127,159.1h37.1c22.6,0,40.9,18.3,40.9,40.9v4.5c0,5,4.1,9.1,9.1,9.1
		c5,0,9.1-4.1,9.1-9.1v-4.5c0-32.6-26.4-59-59-59H127C127,140.9,138.8,129.2,138.8,129.2z"/>
</g>
</svg>
