<?xml version="1.0" encoding="utf-8"?>
<!-- Generator: Adobe Illustrator 25.0.0, SVG Export Plug-In . SVG Version: 6.00 Build 0)  -->
<svg version="1.1" id="Layer_1" xmlns="http://www.w3.org/2000/svg" xmlns:xlink="http://www.w3.org/1999/xlink" x="0px" y="0px"
	 viewBox="0 0 320 320" style="enable-background:new 0 0 320 320;" xml:space="preserve">
<g id="Bootstrap">
	<path d="M192,174.9c-5.2-4.2-11.8-6.3-18.5-5.9H128v46.6h46.3c6.5,0.2,12.8-2,17.7-6.2c4.7-4.6,7.3-10.9,7-17.5
		C199.3,185.6,196.7,179.3,192,174.9z M185.6,144.9c4.4-3.9,6.7-9.5,6.4-15.4c0.6-5.9-1.4-11.7-5.7-15.9c-4.6-3.2-10.1-4.9-15.7-4.6
		H128v41.2h42.7c5.6,0.1,11-1.8,15.4-5.3H185.6z M245.3,32H74.7C51.1,32,32,51.1,32,74.7v170.7c0,23.6,19.1,42.7,42.7,42.7h170.7
		c23.6,0,42.7-19.1,42.7-42.7V74.7C288,51.1,268.9,32,245.3,32z M222,211.7c-2.1,5.2-5.4,9.7-9.8,13.2c-5.1,4-10.9,7-17.2,8.7
		c-8.1,2.4-16.4,3.5-24.9,3.3h-68.6V87.7h72.5c11.4-0.6,22.6,2.7,32,9.2c8.4,6.7,13,17.1,12.2,27.8c0.4,6.8-1.3,13.5-4.9,19.3
		c-4,5.6-9.4,9.9-15.8,12.5l0,0c8.6,1.3,16.2,6,21.3,13c5,7.5,7.4,16.4,7.1,25.4C225.9,200.7,224.5,206.5,222,211.7z"/>
</g>
</svg>
