<?xml version="1.0" encoding="utf-8"?>
<!-- Generator: Adobe Illustrator 25.0.1, SVG Export Plug-In . SVG Version: 6.00 Build 0)  -->
<svg version="1.1" id="Layer_1" xmlns="http://www.w3.org/2000/svg" xmlns:xlink="http://www.w3.org/1999/xlink" x="0px" y="0px"
	 viewBox="0 0 320 320" style="enable-background:new 0 0 320 320;" xml:space="preserve">
<style type="text/css">
	.st0{fill:#212121;}
</style>
<desc>Created with Sketch.</desc>
<desc>Created with Sketch.</desc>
<desc>Created with Sketch.</desc>
<desc>Created with Sketch.</desc>
<desc>Created with Sketch.</desc>
<g id="_xD83D__xDD0D_-Product-Icons">
	<g id="ic_fluent_code_24_regular">
		<path id="_xD83C__xDFA8_-Color" class="st0" d="M109.7,248.8l83.2-185.5c2.2-4.8,7.8-7,12.7-4.8c4.4,2,6.6,6.9,5.3,11.5l-0.5,1.2
			l-83.2,185.5c-2.2,4.8-7.8,7-12.7,4.8c-4.4-2-6.6-6.9-5.3-11.5L109.7,248.8l83.2-185.5L109.7,248.8z M34.8,153.2l54.4-54.4
			c3.7-3.7,9.8-3.7,13.6,0c3.4,3.4,3.7,8.7,0.9,12.5l-0.9,1.1L55.2,160l47.6,47.6c3.7,3.7,3.7,9.8,0,13.6c-3.4,3.4-8.7,3.7-12.5,0.9
			l-1.1-0.9l-54.4-54.4c-3.4-3.4-3.7-8.7-0.9-12.5L34.8,153.2l54.4-54.4L34.8,153.2z M217.2,98.8c3.4-3.4,8.7-3.7,12.5-0.9l1.1,0.9
			l54.4,54.4c3.4,3.4,3.7,8.7,0.9,12.5l-0.9,1.1l-54.4,54.4c-3.7,3.7-9.8,3.7-13.6,0c-3.4-3.4-3.7-8.7-0.9-12.5l0.9-1.1l47.6-47.6
			l-47.6-47.6C213.4,108.7,213.4,102.6,217.2,98.8z"/>
	</g>
</g>
</svg>
