<?xml version="1.0" encoding="utf-8"?>
<!-- Generator: Adobe Illustrator 26.0.3, SVG Export Plug-In . SVG Version: 6.00 Build 0)  -->
<svg version="1.1" id="Layer_1" xmlns="http://www.w3.org/2000/svg" xmlns:xlink="http://www.w3.org/1999/xlink" x="0px" y="0px"
	 viewBox="0 0 320 320" style="enable-background:new 0 0 320 320;" xml:space="preserve">
<g id="Layer_1_1_">
</g>
<path d="M287.8,155.9v8.4c-0.1,0.5-0.2,0.9-0.2,1.4c-0.4,3.7-0.7,7.3-1.3,11c-2,11.8-6.2,22.8-12.5,33
	c-9.6,15.4-22.6,27.2-38.9,35.2c-9.4,4.7-19.5,7.6-30,8.8c-2.3,0.3-4.6,0.5-6.9,0.8h-89.9c-0.5-0.1-0.9-0.2-1.4-0.2
	c-9.1-0.6-17.8-2.6-26.1-6.3c-18.1-7.9-31.6-20.7-40.4-38.4c-3.9-7.8-6.4-16.2-7.5-24.8c-0.3-2.1-0.5-4.2-0.8-6.3v-8.2
	c0.1-0.5,0.2-0.9,0.2-1.4c0.5-7.9,2.1-15.5,4.9-22.8c7.6-19.7,20.9-34.3,39.8-43.8c9.8-4.9,20.3-7.5,31.2-8.1c5.4-0.3,10.7,0,16,0.7
	c0.5,0.1,1.2-0.1,1.5-0.5c7.7-7.8,16.4-14.2,26.2-19c9.5-4.7,19.6-7.7,30.1-8.9c2.5-0.3,5-0.5,7.5-0.8h7.7c0.5,0.1,1,0.2,1.5,0.2
	c3.8,0.4,7.6,0.7,11.4,1.3c11.7,2,22.7,6.2,32.8,12.4c15.5,9.6,27.3,22.6,35.4,38.9c4.7,9.4,7.7,19.6,8.9,30
	C287.3,151.1,287.6,153.5,287.8,155.9 M144.8,101.4c0.2,0.2,0.2,0.3,0.3,0.3c5.3,2.6,10.3,5.6,15,9.1c0.3,0.2,1,0.1,1.4-0.1
	c13-8.3,27.1-11.1,42.3-8.4c14.9,2.6,27,10.1,36.2,21.9c10.5,13.4,14.5,28.6,11.6,45.5c-1.9,11.3-6.5,21.5-14.2,30
	c-14.1,15.5-31.7,21.9-52.4,19.2c-12.8-1.7-23.8-7.2-32.9-16.4c-11.7-11.8-23.5-23.6-35.2-35.4c-1.6-1.6-3.3-2.8-5.6-3.1
	c-3.9-0.5-7.5,1.5-9.2,5c-1.5,3.2-1.3,6.7,2,9.9c13.1,12.8,26.1,25.8,39.1,38.7c2.2,2.2,4.6,4.3,7.2,6.1c9.5,6.9,20.3,10.8,32,12.3
	c9.1,1.2,18.2,0.9,27.2-1.1c17.2-3.9,31.4-12.6,42.6-26.2c9.3-11.2,14.9-24,16.8-38.5c1.1-8.2,0.9-16.6-0.7-24.7
	c-2.6-13.3-8.2-25.3-17.3-35.4c-17.2-19.4-38.9-28-64.7-26.1c-9.9,0.7-19.3,3.7-28.2,8.3C153.4,95,148.9,98,144.8,101.4
	 M138.5,236.5c-0.4-0.3-0.7-0.7-1.1-1c-5.3-5.1-10.7-10.1-16-15.2c-1-1-2-1.5-3.4-1.4c-5.4,0.1-10.7,0.2-16-1
	c-26.2-5.9-41.5-34.5-31.8-59.5c7.6-19.8,28.7-31.8,49.6-28.1c9.3,1.7,17.5,5.6,24.2,12.5c8.2,8.5,16.6,16.7,24.9,25.1
	c1.9,1.9,4.1,2.8,6.7,2.4c3.4-0.5,6.1-2.1,7.3-5.4c1.2-3.3,0.6-6.3-1.9-8.8c-8.7-8.8-17.2-17.8-26.2-26.3
	c-17.5-16.4-38.2-21.2-61.1-14.3c-30.8,9.4-48.8,41.1-41.8,72.5c6.4,28.6,31.4,48.6,60.7,48.7c8.2,0,16.3,0,24.5,0
	C137.5,236.6,137.9,236.6,138.5,236.5"/>
</svg>
