<?xml version="1.0" encoding="utf-8"?>
<!-- Generator: Adobe Illustrator 25.0.1, SVG Export Plug-In . SVG Version: 6.00 Build 0)  -->
<svg version="1.1" id="Layer_1" xmlns="http://www.w3.org/2000/svg" xmlns:xlink="http://www.w3.org/1999/xlink" x="0px" y="0px"
	 viewBox="0 0 320 320" style="enable-background:new 0 0 320 320;" xml:space="preserve">
<style type="text/css">
	.st0{fill:#212121;}
</style>
<desc>Created with Sketch.</desc>
<desc>Created with Sketch.</desc>
<desc>Created with Sketch.</desc>
<desc>Created with Sketch.</desc>
<desc>Created with Sketch.</desc>
<desc>Created with Sketch.</desc>
<desc>Created with Sketch.</desc>
<desc>Created with Sketch.</desc>
<g id="_xD83D__xDD0D_-Product-Icons">
	<g id="ic_fluent_delete_24_regular">
		<path id="_xD83C__xDFA8_-Color" class="st0" d="M160,32c21.9,0,39.7,17.1,40.9,38.7L201,73h66.2c5.2,0,9.5,4.2,9.5,9.5
			c0,4.8-3.6,8.7-8.2,9.4l-1.3,0.1h-10L241,256.1c-1.7,17-15.5,30.1-32.3,31.2l-2.2,0.1h-93c-17.1,0-31.5-12.4-34.2-29.1l-0.3-2.2
			L62.8,91.9h-10c-4.8,0-8.7-3.6-9.4-8.2l-0.1-1.3c0-4.8,3.6-8.7,8.2-9.4l1.3-0.1H119C119,50.3,137.4,32,160,32z M238.1,91.9H81.8
			l16,162.3c0.7,7.5,6.7,13.4,14.1,14.1l1.6,0.1h93c7.6,0,14-5.4,15.5-12.6l0.2-1.6L238.1,91.9z M182.1,126.6c4.8,0,8.7,3.6,9.4,8.2
			l0.1,1.3v88.3c0,5.2-4.2,9.5-9.5,9.5c-4.8,0-8.7-3.6-9.4-8.2l-0.1-1.3V136C172.6,130.8,176.8,126.6,182.1,126.6z M137.9,126.6
			c4.8,0,8.7,3.6,9.4,8.2l0.1,1.3v88.3c0,5.2-4.2,9.5-9.5,9.5c-4.8,0-8.7-3.6-9.4-8.2l-0.1-1.3V136
			C128.5,130.8,132.7,126.6,137.9,126.6z M160,50.9c-11.6,0-21.1,8.9-22,20.3l-0.1,1.8h44.1C182.1,60.8,172.2,50.9,160,50.9z"/>
	</g>
</g>
</svg>
