<?xml version="1.0" encoding="utf-8"?>
<!-- Generator: Adobe Illustrator 25.0.1, SVG Export Plug-In . SVG Version: 6.00 Build 0)  -->
<svg version="1.1" id="Layer_1" xmlns="http://www.w3.org/2000/svg" xmlns:xlink="http://www.w3.org/1999/xlink" x="0px" y="0px"
	 viewBox="0 0 320 320" style="enable-background:new 0 0 320 320;" xml:space="preserve">
<style type="text/css">
	.st0{fill:#212121;}
</style>
<desc>Created with Sketch.</desc>
<desc>Created with Sketch.</desc>
<g id="_xD83D__xDD0D_-Product-Icons">
	<g id="ic_fluent_document_24_regular">
		<path id="_xD83C__xDFA8_-Color" class="st0" d="M243.2,262.3c0,3.5-2.9,6.4-6.4,6.4H83.2c-3.5,0-6.4-2.9-6.4-6.4V57.5
			c0-3.5,2.9-6.4,6.4-6.4H155v62.6c0,14.1,11.5,25.6,25.6,25.6h62.6V262.3z M174.2,65.4l54.6,54.7h-48.2c-3.5,0-6.4-2.9-6.4-6.4
			V65.4z M254.9,119l-79.6-79.6c-0.3-0.3-0.7-0.6-1.1-0.9c-0.9-0.8-1.8-1.6-2.8-2.3c-0.5-0.3-1.1-0.6-1.6-0.9
			c-0.9-0.5-1.8-1.1-2.8-1.5c-2.5-1-5.2-1.6-8-1.8c-0.6,0-1.2-0.2-1.8-0.2h0H155H83.2c-14.1,0-25.6,11.5-25.6,25.6v204.8
			c0,14.1,11.5,25.6,25.6,25.6h153.6c14.1,0,25.6-11.5,25.6-25.6v-123v-2.2C262.4,130.3,259.7,123.8,254.9,119L254.9,119z"/>
	</g>
</g>
</svg>
