<?xml version="1.0" encoding="utf-8"?>
<!-- Generator: Adobe Illustrator 25.0.1, SVG Export Plug-In . SVG Version: 6.00 Build 0)  -->
<svg version="1.1" id="Layer_1" xmlns="http://www.w3.org/2000/svg" xmlns:xlink="http://www.w3.org/1999/xlink" x="0px" y="0px"
	 viewBox="0 0 320 320" style="enable-background:new 0 0 320 320;" xml:space="preserve">
<style type="text/css">
	.st0{fill:#212121;}
</style>
<g>
	<path class="st0" d="M257.6,251.3c0,3.4-2.7,6.1-6.1,6.1h-69.9c-3.5,6.7-7.9,12.9-13.1,18.3h83.1c13.5,0,24.4-10.9,24.4-24.4V127.2
		c0-6.5-2.6-12.7-7.2-17.3l-71.1-71.1c-0.2-0.2-0.4-0.3-0.6-0.5c-0.2-0.1-0.3-0.2-0.4-0.4c-0.9-0.8-1.7-1.5-2.7-2.2
		c-0.3-0.2-0.6-0.4-1-0.5c-0.2-0.1-0.4-0.2-0.6-0.3c-0.2-0.1-0.4-0.2-0.6-0.3c-0.7-0.4-1.3-0.8-2-1.1c-2.4-1-5-1.5-7.6-1.7
		c-0.2,0-0.5,0-0.7-0.1c-0.3,0-0.7-0.1-1-0.1h-75.3c-13.5,0-24.4,10.9-24.4,24.4v91.5c5.8-2.4,11.9-4.2,18.3-5.1V56
		c0-3.4,2.7-6.1,6.1-6.1h73.2v54.9c0,13.5,10.9,24.4,24.4,24.4h54.9V251.3z M196.6,63.6l47.3,47.3h-41.2c-3.4,0-6.1-2.7-6.1-6.1
		V63.6z"/>
	<path class="st0" d="M44.1,220.8c0-37.1,30-67.1,67.1-67.1s67.1,30,67.1,67.1s-30,67.1-67.1,67.1S44.1,257.9,44.1,220.8z
		 M117.3,184.2c0-3.4-2.7-6.1-6.1-6.1s-6.1,2.7-6.1,6.1v58.5L85,222.6c-2.4-2.4-6.2-2.4-8.6,0c-2.4,2.4-2.4,6.2,0,8.6l30.5,30.5
		c2.4,2.4,6.2,2.4,8.6,0l30.5-30.5c2.4-2.4,2.4-6.2,0-8.6c-2.4-2.4-6.2-2.4-8.6,0l-20.1,20.1V184.2z"/>
</g>
</svg>
