<?xml version="1.0" encoding="utf-8"?>
<!-- Generator: Adobe Illustrator 25.0.1, SVG Export Plug-In . SVG Version: 6.00 Build 0)  -->
<svg version="1.1" id="Layer_1" xmlns="http://www.w3.org/2000/svg" xmlns:xlink="http://www.w3.org/1999/xlink" x="0px" y="0px"
	 viewBox="0 0 320 320" style="enable-background:new 0 0 320 320;" xml:space="preserve">
<desc>Created with Sketch.</desc>
<desc>Created with Sketch.</desc>
<desc>Created with Sketch.</desc>
<desc>Created with Sketch.</desc>
<desc>Created with Sketch.</desc>
<desc>Created with Sketch.</desc>
<desc>Created with Sketch.</desc>
<path d="M171.6,32C235.9,32,288,84.1,288,148.4s-52.1,116.4-116.4,116.4c-3.9,0-7.7-0.2-11.5-0.6c3.7-5.8,6.5-12.1,8.5-18.9l3,0
	c53.5,0,97-43.5,97-97s-43.5-97-97-97s-97,43.5-97,97l0,3c-6.7,2-13.1,4.8-18.9,8.5c-0.4-3.8-0.6-7.6-0.6-11.5
	C55.3,84.1,107.4,32,171.6,32z M162.9,78.5c4.4,0,8.1,3.3,8.6,7.5l0.1,1.2v61.1h37.8c4.8,0,8.7,3.9,8.7,8.7c0,4.4-3.3,8.1-7.5,8.6
	l-1.2,0.1h-46.5c-4.4,0-8.1-3.3-8.6-7.5l-0.1-1.2V87.3C154.2,82.5,158.1,78.5,162.9,78.5z"/>
<path d="M32.2,223.6c0-35.2,28.6-63.8,63.8-63.8s63.8,28.6,63.8,63.8s-28.6,63.8-63.8,63.8S32.2,258.8,32.2,223.6z M101.9,244.4
	v-55.6c0-3.2-2.6-5.8-5.8-5.8s-5.8,2.6-5.8,5.8v55.6l-19.1-19.1c-2.3-2.3-5.9-2.3-8.2,0c-2.3,2.3-2.3,5.9,0,8.2l29,29
	c2.3,2.3,5.9,2.3,8.2,0l29-29c2.3-2.3,2.3-5.9,0-8.2c-2.3-2.3-5.9-2.3-8.2,0L101.9,244.4z"/>
</svg>
