<?xml version="1.0" encoding="utf-8"?>
<!-- Generator: Adobe Illustrator 25.0.0, SVG Export Plug-In . SVG Version: 6.00 Build 0)  -->
<svg version="1.1" id="Layer_1" xmlns="http://www.w3.org/2000/svg" xmlns:xlink="http://www.w3.org/1999/xlink" x="0px" y="0px"
	 viewBox="0 0 320 320" style="enable-background:new 0 0 320 320;" xml:space="preserve">
<g>
	<desc>Created with Sketch.</desc>
	<g id="_xD83D__xDD0D_-Product-Icons_1_">
		<g id="ic_fluent_gift_24_regular_1_">
			<path id="_xD83C__xDFA8_-Color_1_" d="M191.9,31.9c23,0,41.6,18.6,41.6,41.6c0,8.3-2.4,15.9-6.5,22.4l32.1,0c8.8,0,16,7.2,16,16
				v44.8c0,7.7-5.5,14.2-12.8,15.7l0,73.9c0,22.2-17.4,40.3-39.2,41.5l-2.4,0.1H99.1c-22.2,0-40.3-17.4-41.5-39.2l-0.1-2.4l0-73.9
				c-7.3-1.5-12.8-7.9-12.8-15.7v-44.8c0-8.8,7.2-16,16-16l32.1,0c-4.1-6.5-6.5-14.2-6.5-22.4c0-23,18.6-41.6,41.6-41.6
				c12.9,0,24.4,5.8,32,15C167.6,37.8,179.1,31.9,191.9,31.9z M150.3,172.7H76.7v73.6c0,11.8,9.1,21.4,20.6,22.3l1.8,0.1h51.2V172.7
				z M243.1,172.7h-73.6v96h51.2c11.8,0,21.4-9.1,22.3-20.6l0.1-1.8V172.7z M150.3,115.1H63.9v38.4l86.4,0V115.1z M255.9,153.5
				v-38.4h-86.4v38.4L255.9,153.5z M191.9,51.1c-12.4,0-22.4,10-22.4,22.4v22.4h22.7l1.5-0.1c11.5-0.9,20.6-10.6,20.6-22.3
				C214.3,61.2,204.3,51.1,191.9,51.1z M127.9,51.1c-12.4,0-22.4,10-22.4,22.4c0,11.8,9.1,21.4,20.6,22.3l1.5,0.1h22.7V73.5
				l-0.1-1.8C149.3,60.2,139.7,51.1,127.9,51.1z"/>
		</g>
	</g>
</g>
</svg>
