<?xml version="1.0" encoding="utf-8"?>
<!-- Generator: Adobe Illustrator 25.0.0, SVG Export Plug-In . SVG Version: 6.00 Build 0)  -->
<svg version="1.1" id="Layer_1" xmlns="http://www.w3.org/2000/svg" xmlns:xlink="http://www.w3.org/1999/xlink" x="0px" y="0px"
	 viewBox="0 0 320 320" style="enable-background:new 0 0 320 320;" xml:space="preserve">
<style type="text/css">
	.st0{fill-rule:evenodd;clip-rule:evenodd;}
</style>
<g id="Layer_1_1_">
</g>
<g id="black">
	<g id="slice" transform="translate(-900.000000, -500.000000)">
	</g>
	<g id="github" transform="translate(11.000000, 11.000000)">
		<path class="st0" d="M117.8,271c0-3.1-0.1-11.4-0.2-22.3C82,256.6,74.5,231,74.5,231c-5.8-15.2-14.2-19.2-14.2-19.2
			c-11.6-8.1,0.9-8,0.9-8c12.8,0.9,19.6,13.5,19.6,13.5c11.4,20.1,30,14.3,37.3,10.9c1.2-8.5,4.5-14.3,8.1-17.5
			c-28.4-3.3-58.3-14.6-58.3-64.9c0-14.3,5-26,13.2-35.2c-1.3-3.3-5.7-16.7,1.3-34.7c0,0,10.7-3.5,35.2,13.5
			c10.2-2.9,21.2-4.4,32.1-4.4c10.9,0,21.8,1.5,32,4.4c24.4-17,35.2-13.5,35.2-13.5c7,18.1,2.6,31.4,1.3,34.7
			c8.2,9.2,13.2,20.9,13.2,35.2c0,50.4-29.9,61.5-58.4,64.8c4.6,4.1,8.7,12.1,8.7,24.3c0,17.5-0.2,31.7-0.2,36
			c0,3.5,2.3,7.6,8.8,6.3c50.8-17.4,87.5-66.6,87.5-124.5c0-72.5-57.3-131.2-128-131.2c-70.7,0-128,58.8-128,131.2
			c0,58,36.7,107.2,87.5,124.5C115.4,278.5,117.8,274.4,117.8,271z"/>
	</g>
</g>
</svg>
