<?xml version="1.0" encoding="utf-8"?>
<!-- Generator: Adobe Illustrator 26.0.3, SVG Export Plug-In . SVG Version: 6.00 Build 0)  -->
<svg version="1.1" id="Layer_1" xmlns="http://www.w3.org/2000/svg" xmlns:xlink="http://www.w3.org/1999/xlink" x="0px" y="0px"
	 viewBox="0 0 320 320" style="enable-background:new 0 0 320 320;" xml:space="preserve">
<style type="text/css">
	.st0{fill-rule:evenodd;clip-rule:evenodd;fill:#212121;}
</style>
<desc>Created with Sketch.</desc>
<desc>Created with Sketch.</desc>
<desc>Created with Sketch.</desc>
<g>
	<path class="st0" d="M160,32C89.3,32,32,89.3,32,160s57.3,128,128,128s128-57.3,128-128S230.7,32,160,32z M187.5,265.3
		c0-0.3-0.1-0.5-0.1-0.8c0-3.6,0.2-15.7,0.2-30.5c0-10.3-3.5-17.1-7.4-20.6c24.1-2.8,49.5-12.2,49.5-54.9c0-12.1-4.2-22-11.2-29.8
		c1.1-2.8,4.8-14.1-1.1-29.4c0,0-9.1-3-29.8,11.4c-8.6-2.5-17.9-3.7-27.1-3.7c-9.2,0-18.5,1.3-27.2,3.7
		c-20.7-14.4-29.8-11.4-29.8-11.4c-5.9,15.2-2.2,26.6-1.1,29.4c-6.9,7.8-11.2,17.7-11.2,29.8c0,42.6,25.3,52.2,49.4,55
		c-3,2.7-5.8,7.6-6.9,14.8c-6.2,2.9-21.9,7.8-31.6-9.2c0,0-5.8-10.7-16.6-11.4c0,0-10.6-0.1-0.8,6.8c0,0,7.1,3.4,12,16.3
		c0,0,6.4,21.7,36.5,15c0.1,9.2,0.2,16.3,0.2,18.9c0,0.3,0,0.6-0.1,0.9C86.2,253.7,51.2,210.9,51.2,160
		C51.2,99.9,99.9,51.2,160,51.2c60.1,0,108.8,48.7,108.8,108.8C268.8,210.6,234.3,253.1,187.5,265.3z"/>
</g>
</svg>
