<?xml version="1.0" encoding="utf-8"?>
<!-- Generator: Adobe Illustrator 25.0.1, SVG Export Plug-In . SVG Version: 6.00 Build 0)  -->
<svg version="1.1" id="Layer_1" xmlns="http://www.w3.org/2000/svg" xmlns:xlink="http://www.w3.org/1999/xlink" x="0px" y="0px"
	 viewBox="0 0 320 320" style="enable-background:new 0 0 320 320;" xml:space="preserve">
<style type="text/css">
	.st0{fill:#212121;}
</style>
<desc>Created with Sketch.</desc>
<desc>Created with Sketch.</desc>
<desc>Created with Sketch.</desc>
<desc>Created with Sketch.</desc>
<desc>Created with Sketch.</desc>
<desc>Created with Sketch.</desc>
<desc>Created with Sketch.</desc>
<desc>Created with Sketch.</desc>
<path class="st0" d="M35.6,45.7c-3.5,3.5-3.8,9-1,12.9l1,1.1l48.7,48.7c-25.3,17.8-44.2,44.3-52.1,75.7c-1.3,5.3,1.9,10.7,7.2,12
	c5.3,1.3,10.7-1.9,12-7.2c7-27.9,24.2-51.2,47.1-66.3l23.8,23.8c-9.3,9.5-15.1,22.5-15.1,36.9c0,29.1,23.6,52.7,52.7,52.7
	c14.4,0,27.4-5.7,36.9-15.1l63.5,63.5c3.9,3.9,10.1,3.9,14,0c3.5-3.5,3.8-9,1-12.9l-1-1.1l-66.1-66.1l0,0l-15.8-15.8l-37.8-37.8l0,0
	l-37.9-37.9l0,0L101.8,98L49.6,45.7C45.7,41.8,39.4,41.8,35.6,45.7z M136.3,160.4l46.5,46.5c-5.9,5.7-14,9.3-22.9,9.3
	c-18.2,0-32.9-14.7-32.9-32.9C127,174.4,130.6,166.3,136.3,160.4z M159.9,84.5c-13.2,0-26,1.9-38,5.6l16.3,16.3
	c7.1-1.4,14.3-2.1,21.8-2.1c51.7,0,96.3,35.3,108.6,84.7c1.3,5.3,6.7,8.5,12,7.2c5.3-1.3,8.5-6.7,7.2-12
	C273.2,126,220.7,84.5,159.9,84.5z M162.5,130.7l50.1,50C211.2,153.6,189.5,132,162.5,130.7z"/>
<desc>Created with Sketch.</desc>
</svg>
