<?xml version="1.0" encoding="utf-8"?>
<!-- Generator: Adobe Illustrator 25.0.0, SVG Export Plug-In . SVG Version: 6.00 Build 0)  -->
<svg version="1.1" id="Layer_1" xmlns="http://www.w3.org/2000/svg" xmlns:xlink="http://www.w3.org/1999/xlink" x="0px" y="0px"
	 viewBox="0 0 320 320" style="enable-background:new 0 0 320 320;" xml:space="preserve">
<g>
	<polygon points="97.4,55 108,55 108,66.6 119.5,66.6 119.5,32 108,32 108,43.4 97.4,43.4 97.4,32 85.8,32 85.8,66.6 97.4,66.6 	"/>
	<polygon points="134.7,66.6 146.3,66.6 146.3,43.5 156.5,43.5 156.5,32 124.6,32 124.6,43.5 134.7,43.5 	"/>
	<polygon points="172.9,49.5 180.8,61.8 181,61.8 189,49.5 189,66.6 200.5,66.6 200.5,32 188.5,32 181,44.2 173.6,32 161.6,32 
		161.6,66.6 172.9,66.6 	"/>
	<polygon points="234.1,55.2 217.8,55.2 217.8,32 206.3,32 206.3,66.6 234.1,66.6 	"/>
	<path d="M69.1,81.8l16.5,185.6L160,288l74.3-20.6l16.6-185.6C250.9,81.8,69.1,81.8,69.1,81.8z M215,142.5h-55h-32.1l2.1,23.3H160
		h52.9l-6.2,69.9L160,248.6l0,0l-46.6-12.9l-3.3-36.6h22.8l1.7,19L160,225l0,0l0,0l25.4-6.9l2.6-29.5h-28l0,0h-50.9l-6.1-68.8h57h57
		L215,142.5z"/>
</g>
</svg>
