<?xml version="1.0" encoding="utf-8"?>
<!-- Generator: Adobe Illustrator 25.0.1, SVG Export Plug-In . SVG Version: 6.00 Build 0)  -->
<svg version="1.1" id="Layer_1" xmlns="http://www.w3.org/2000/svg" xmlns:xlink="http://www.w3.org/1999/xlink" x="0px" y="0px"
	 viewBox="0 0 320 320" style="enable-background:new 0 0 320 320;" xml:space="preserve">
<style type="text/css">
	.st0{fill:#212121;}
</style>
<desc>Created with Sketch.</desc>
<desc>Created with Sketch.</desc>
<desc>Created with Sketch.</desc>
<g id="_xD83D__xDD0D_-Product-Icons_1_">
	<g id="ic_fluent_info_24_regular">
		<path id="_xD83C__xDFA8_-Color_1_" class="st0" d="M160,31.9c70.7,0,128,57.3,128,128s-57.3,128-128,128s-128-57.3-128-128
			S89.3,31.9,160,31.9z M160,51.1c-60.1,0-108.8,48.7-108.8,108.8S99.9,268.7,160,268.7S268.8,220,268.8,159.9S220.1,51.1,160,51.1z
			 M160,140.7c4.9,0,8.9,3.6,9.5,8.3l0.1,1.3l0,70.4c0,5.3-4.3,9.6-9.6,9.6c-4.9,0-8.9-3.6-9.5-8.3l-0.1-1.3l0-70.4
			C150.4,145,154.7,140.7,160,140.7z M160,95.9c7.1,0,12.8,5.7,12.8,12.8s-5.7,12.8-12.8,12.8c-7.1,0-12.8-5.7-12.8-12.8
			S152.9,95.9,160,95.9z"/>
	</g>
</g>
</svg>
