<?xml version="1.0" encoding="utf-8"?>
<!-- Generator: Adobe Illustrator 25.0.0, SVG Export Plug-In . SVG Version: 6.00 Build 0)  -->
<svg version="1.1" id="Layer_1" xmlns="http://www.w3.org/2000/svg" xmlns:xlink="http://www.w3.org/1999/xlink" x="0px" y="0px"
	 viewBox="0 0 320 320" style="enable-background:new 0 0 320 320;" xml:space="preserve">
<path d="M32,32V288H288V32H32z M159.7,214.8c0,16.8-3.9,29.6-11.6,38.5c-7.8,8.9-19,13.3-33.7,13.3c-6.6,0-12.7-1.1-18.2-3.4v-26.4
	c4.8,3.7,10.2,5.5,16.2,5.5c12.9,0,19.3-9.5,19.3-28.6v-74.3h28.1V214.8z M262.7,246.9c-2.6,4.7-6.2,8.6-10.8,11.5
	c-4.5,2.9-9.8,5-15.8,6.3c-6,1.3-12.4,1.9-19.1,1.9c-6.9,0-13.4-0.6-19.6-1.7c-6.2-1.2-11.6-2.9-16.1-5.2v-27.9
	c5.1,4.2,10.6,7.4,16.5,9.6c5.9,2.1,11.9,3.2,18,3.2c3.5,0,6.6-0.3,9.3-1c2.6-0.6,4.9-1.5,6.6-2.7c1.8-1.1,3.1-2.5,4-4
	c0.9-1.5,1.3-3.2,1.3-5c0-2.4-0.7-4.6-2.1-6.5c-1.4-1.9-3.3-3.7-5.7-5.3c-2.4-1.6-5.3-3.2-8.6-4.7c-3.3-1.5-6.9-3.1-10.7-4.6
	c-9.8-4.1-17.1-9-21.9-14.9c-4.8-5.9-7.2-13-7.2-21.3c0-6.5,1.3-12.1,3.9-16.8c2.6-4.7,6.2-8.5,10.7-11.6c4.5-3,9.7-5.2,15.7-6.7
	c5.9-1.4,12.2-2.1,18.8-2.1c6.5,0,12.3,0.4,17.3,1.2c5,0.8,9.7,2,13.9,3.6v26.1c-2.1-1.5-4.4-2.7-6.8-3.8c-2.5-1.1-5-2-7.6-2.7
	c-2.6-0.7-5.2-1.3-7.8-1.6c-2.6-0.3-5-0.5-7.4-0.5c-3.2,0-6.1,0.3-8.7,0.9c-2.6,0.6-4.8,1.5-6.6,2.6c-1.8,1.1-3.2,2.4-4.2,4
	c-1,1.5-1.5,3.3-1.5,5.2c0,2.1,0.6,4,1.7,5.6c1.1,1.7,2.7,3.2,4.7,4.7c2,1.5,4.5,2.9,7.4,4.4c2.9,1.4,6.2,2.9,9.9,4.4
	c5,2.1,9.5,4.3,13.5,6.7c4,2.4,7.4,5,10.3,8c2.8,3,5,6.4,6.5,10.2c1.5,3.8,2.3,8.2,2.3,13.3C266.7,236.3,265.3,242.2,262.7,246.9z"
	/>
</svg>
