<?xml version="1.0" encoding="utf-8"?>
<!-- Generator: Adobe Illustrator 25.0.1, SVG Export Plug-In . SVG Version: 6.00 Build 0)  -->
<svg version="1.1" id="Layer_1" xmlns="http://www.w3.org/2000/svg" xmlns:xlink="http://www.w3.org/1999/xlink" x="0px" y="0px"
	 viewBox="0 0 320 320" style="enable-background:new 0 0 320 320;" xml:space="preserve">
<desc>Created with Sketch.</desc>
<desc>Created with Sketch.</desc>
<desc>Created with Sketch.</desc>
<desc>Created with Sketch.</desc>
<path d="M35.7,117.4h54.7v164.6H35.7V117.4z M63.4,38.1c-18.7,0-30.9,12.3-30.9,28.4c0,15.8,11.9,28.4,30.2,28.4H63
	c19.1,0,31-12.6,31-28.4C93.6,50.4,82.1,38.1,63.4,38.1z M224.6,113.5c-29,0-42,16-49.3,27.2v-23.3h-54.7c0.7,15.4,0,164.6,0,164.6
	h54.7V190c0-4.9,0.4-9.8,1.8-13.4c4-9.8,13-20,28.1-20c19.8,0,27.7,15.1,27.7,37.2v88h54.7v-94.4C287.6,137,260.6,113.5,224.6,113.5
	z"/>
</svg>
