<?xml version="1.0" encoding="utf-8"?>
<!-- Generator: Adobe Illustrator 25.0.0, SVG Export Plug-In . SVG Version: 6.00 Build 0)  -->
<svg version="1.1" id="Layer_1" xmlns="http://www.w3.org/2000/svg" xmlns:xlink="http://www.w3.org/1999/xlink" x="0px" y="0px"
	 viewBox="0 0 320 320" style="enable-background:new 0 0 320 320;" xml:space="preserve">
<g>
	<desc>Created with Sketch.</desc>
	<g id="_xD83D__xDD0D_-Product-Icons_2_">
		<g id="ic_fluent_mail_48_regular_1_">
			<path id="_xD83C__xDFA8_-Color_2_" d="M252.6,58.9c19.5,0,35.4,15.8,35.4,35.4v131.4c0,19.5-15.8,35.4-35.4,35.4H67.3
				c-19.5,0-35.4-15.8-35.4-35.4V94.2c0-19.5,15.8-35.4,35.4-35.4H252.6z M271.1,121.9L164,180.8c-2.2,1.2-4.9,1.4-7.3,0.4l-0.9-0.4
				L48.8,121.9v103.7c0,10.2,8.3,18.5,18.5,18.5h185.3c10.2,0,18.5-8.3,18.5-18.5V121.9z M252.6,75.7H67.3
				c-10.2,0-18.5,8.3-18.5,18.5v8.4l111.2,61.1l111.2-61.1v-8.4C271.1,84,262.8,75.7,252.6,75.7z"/>
		</g>
	</g>
</g>
</svg>
