<?xml version="1.0" encoding="utf-8"?>
<!-- Generator: Adobe Illustrator 25.0.0, SVG Export Plug-In . SVG Version: 6.00 Build 0)  -->
<svg version="1.1" id="Layer_1" xmlns="http://www.w3.org/2000/svg" xmlns:xlink="http://www.w3.org/1999/xlink" x="0px" y="0px"
	 viewBox="0 0 320 320" style="enable-background:new 0 0 320 320;" xml:space="preserve">
<style type="text/css">
	.st0{fill:#212121;}
</style>
<g>
	<path class="st0" d="M260.4,223.9c-35.4,61.3-113.7,82.2-174.9,46.9c-16.7-9.6-30.7-22.7-41.4-38.2c-3.6-5.2-1.3-12.4,4.7-14.5
		c48.2-17.3,74.1-37.3,89.1-65.9c15.8-30.1,19.9-63.1,8.8-108.4c-1.5-6.3,3.4-12.2,9.8-11.9c19.9,1.1,39.4,6.8,57.1,17
		C274.8,84.4,295.8,162.7,260.4,223.9z M153.6,160.5c-16.4,31.3-43.5,52.9-88.4,70.5c8.2,9.7,18,18,29.2,24.4
		c52.7,30.5,120.2,12.4,150.6-40.4c30.5-52.7,12.4-120.2-40.4-150.6c-10.9-6.3-22.7-10.7-34.9-12.9l-3.3-0.6
		C174.9,93.4,170.6,128,153.6,160.5z"/>
</g>
</svg>
