<?xml version="1.0" encoding="utf-8"?>
<!-- Generator: Adobe Illustrator 25.0.1, SVG Export Plug-In . SVG Version: 6.00 Build 0)  -->
<svg version="1.1" id="Layer_1" xmlns="http://www.w3.org/2000/svg" xmlns:xlink="http://www.w3.org/1999/xlink" x="0px" y="0px"
	 viewBox="0 0 320 320" style="enable-background:new 0 0 320 320;" xml:space="preserve">
<style type="text/css">
	.st0{fill:#212121;}
</style>
<desc>Created with Sketch.</desc>
<desc>Created with Sketch.</desc>
<desc>Created with Sketch.</desc>
<desc>Created with Sketch.</desc>
<desc>Created with Sketch.</desc>
<desc>Created with Sketch.</desc>
<desc>Created with Sketch.</desc>
<g>
	<path class="st0" d="M284.4,271l-36.8-36.8l0,0l-57-57v0L134.5,121c0,0,0,0,0,0l-13.6-13.6c0,0,0,0,0,0L48.3,34.8l-1.1-0.9
		c-3.7-2.8-9.1-2.5-12.5,0.9l-0.9,1.1c-2.8,3.7-2.5,9.1,0.9,12.5l37.6,37.6L72.3,110c-0.1,20.9,16.9,38.1,37.8,38.2v9.3H72.3
		c-5.3,0-9.6,4.3-9.6,9.6s4.3,9.6,9.6,9.6h37.8v13.9c-20.9,0.1-37.9,17.3-37.8,38.2l0.1,14.1c0,5.3,4.3,9.6,9.6,9.6c0,0,0,0,0,0
		c2.6,0,5-1,6.8-2.8c1.8-1.8,2.8-4.2,2.8-6.8l-0.1-14.1c0-10.4,8.4-18.9,18.8-18.9h2.6c7,20,25.7,33.3,47.1,33.3
		c18.5,0,35.1-10,43.7-25.8l67.2,67.2l1.1,0.9c3.7,2.8,9.1,2.5,12.5-0.9C288.2,280.8,288.2,274.8,284.4,271z M110.3,129
		c-5,0-9.7-2-13.3-5.6s-5.5-8.3-5.5-13.3l0-5l19.7,19.7c-0.3,1.4-0.6,2.8-0.8,4.2H110.3z M160,223.9c-16.9,0-30.7-13.8-30.7-30.7
		v-50.3l59.8,59.9C185.1,215,173.6,223.9,160,223.9z"/>
	<path class="st0" d="M155.8,115.2h16.1c10.4,0,18.8,8.4,18.8,18.8v16.1l26.6,26.7h30.4c5.3,0,9.6-4.3,9.6-9.6s-4.3-9.6-9.6-9.6
		h-37.8v-9.3c10.1-0.1,19.6-4.1,26.8-11.3c7.2-7.2,11.1-16.8,11-26.9l-0.1-14.1c0-2.6-1-5-2.8-6.8c-1.8-1.8-4.2-2.8-6.8-2.8
		c0,0,0,0,0,0c-2.6,0-5,1-6.8,2.8c-1.8,1.8-2.8,4.2-2.8,6.8l0.1,14.1c0,5-1.9,9.8-5.5,13.3c-3.5,3.6-8.3,5.5-13.4,5.6h-0.1
		c-1.7-13.2-10.3-24.5-22.5-29.9c2.5-4.5,3.8-9.6,3.8-14.9v-7.1c0-5.3-4.3-9.6-9.6-9.6s-9.6,4.3-9.6,9.6v7.1
		c0,6.5-5.3,11.7-11.7,11.7s-11.7-5.3-11.7-11.7v-7.1c0-5.3-4.3-9.6-9.6-9.6s-9.6,4.3-9.6,9.6v7.1c0,1.5,0.1,3.1,0.3,4.6
		L155.8,115.2z"/>
</g>
</svg>
