<?xml version="1.0" encoding="utf-8"?>
<!-- Generator: Adobe Illustrator 25.0.1, SVG Export Plug-In . SVG Version: 6.00 Build 0)  -->
<svg version="1.1" id="Layer_1" xmlns="http://www.w3.org/2000/svg" xmlns:xlink="http://www.w3.org/1999/xlink" x="0px" y="0px"
	 viewBox="0 0 320 320" style="enable-background:new 0 0 320 320;" xml:space="preserve">
<style type="text/css">
	.st0{fill:#212121;}
</style>
<desc>Created with Sketch.</desc>
<desc>Created with Sketch.</desc>
<desc>Created with Sketch.</desc>
<desc>Created with Sketch.</desc>
<desc>Created with Sketch.</desc>
<desc>Created with Sketch.</desc>
<desc>Created with Sketch.</desc>
<path class="st0" d="M91.3,50c-4.6,0-8.2,3.7-8.2,8.2v126.5c0,13.7,11.1,24.7,24.7,24.7h24.7v33c0,15.2,12.3,27.5,27.5,27.5
	c15.2,0,27.5-12.3,27.5-27.5v-33h24.7c13.7,0,24.7-11.1,24.7-24.7V58.3c0-4.6-3.7-8.2-8.2-8.2H91.3z M99.5,149V66.5h66v19.3
	c0,4.6,3.7,8.2,8.2,8.2s8.2-3.7,8.2-8.2V66.5h11v30.3c0,4.6,3.7,8.2,8.2,8.2s8.2-3.7,8.2-8.2V66.5h11V149H99.5z M99.5,184.8v-19.2
	h121v19.2c0,4.6-3.7,8.2-8.2,8.2h-33c-4.6,0-8.2,3.7-8.2,8.2v41.2c0,6.1-4.9,11-11,11c-6.1,0-11-4.9-11-11v-41.2
	c0-4.6-3.7-8.2-8.2-8.2h-33C103.2,193,99.5,189.3,99.5,184.8z"/>
</svg>
