<?xml version="1.0" encoding="utf-8"?>
<!-- Generator: Adobe Illustrator 25.0.1, SVG Export Plug-In . SVG Version: 6.00 Build 0)  -->
<svg version="1.1" id="Layer_1" xmlns="http://www.w3.org/2000/svg" xmlns:xlink="http://www.w3.org/1999/xlink" x="0px" y="0px"
	 viewBox="0 0 320 320" style="enable-background:new 0 0 320 320;" xml:space="preserve">
<style type="text/css">
	.st0{fill:#212121;}
</style>
<desc>Created with Sketch.</desc>
<desc>Created with Sketch.</desc>
<desc>Created with Sketch.</desc>
<desc>Created with Sketch.</desc>
<desc>Created with Sketch.</desc>
<desc>Created with Sketch.</desc>
<desc>Created with Sketch.</desc>
<g>
	<path class="st0" d="M157.2,137.3c-3.7-3.7-9.8-3.7-13.6,0c-3.7,3.7-3.7,9.8,0,13.6l9.2,9.2l-9.2,9.2c-3.7,3.7-3.7,9.8,0,13.5
		c3.7,3.7,9.8,3.7,13.5,0l9.2-9.2l9.2,9.2c3.7,3.7,9.8,3.7,13.6,0c3.7-3.7,3.7-9.8,0-13.5l-9.2-9.2l9.2-9.2c3.7-3.7,3.7-9.8,0-13.5
		c-3.7-3.7-9.8-3.7-13.5,0l-9.2,9.2L157.2,137.3z"/>
	<path class="st0" d="M73.4,137.3c3.7-3.7,9.8-3.7,13.6,0l9.2,9.2l9.2-9.2c3.7-3.7,9.8-3.7,13.6,0c3.7,3.7,3.7,9.8,0,13.5l-9.2,9.2
		l9.2,9.2c3.7,3.7,3.7,9.8,0,13.5c-3.7,3.7-9.8,3.7-13.6,0l-9.2-9.2l-9.2,9.2c-3.7,3.7-9.8,3.7-13.6,0c-3.7-3.7-3.7-9.8,0-13.5
		l9.2-9.2l-9.2-9.2C69.6,147.1,69.6,141,73.4,137.3z"/>
	<path class="st0" d="M217.5,179.2c-5.3,0-9.6,4.3-9.6,9.6c0,5.3,4.3,9.6,9.6,9.6h22.4c5.3,0,9.6-4.3,9.6-9.6c0-5.3-4.3-9.6-9.6-9.6
		H217.5z"/>
	<path class="st0" d="M73.8,70.6c-22.9,0-41.5,18.6-41.5,41.5v95.8c0,22.9,18.6,41.5,41.5,41.5h172.5c22.9,0,41.5-18.6,41.5-41.5
		v-95.8c0-22.9-18.6-41.5-41.5-41.5H73.8z M51.4,112.1c0-12.4,10-22.4,22.3-22.4h172.5c12.3,0,22.3,10,22.3,22.4v95.8
		c0,12.3-10,22.4-22.4,22.4H73.8c-12.3,0-22.4-10-22.4-22.4V112.1z"/>
</g>
</svg>
