<?xml version="1.0" encoding="utf-8"?>
<!-- Generator: Adobe Illustrator 25.0.0, SVG Export Plug-In . SVG Version: 6.00 Build 0)  -->
<svg version="1.1" id="Layer_1" xmlns="http://www.w3.org/2000/svg" xmlns:xlink="http://www.w3.org/1999/xlink" x="0px" y="0px"
	 viewBox="0 0 320 320" style="enable-background:new 0 0 320 320;" xml:space="preserve">
<g>
	<desc>Created with Sketch.</desc>
	<g id="_xD83D__xDD0D_-Product-Icons_3_">
		<g id="ic_fluent_phone_28_regular_1_">
			<path id="_xD83C__xDFA8_-Color_3_" d="M94.8,38.7l17.7-5.3c16.7-5,34.5,3.1,41.6,19l11,24.5c6.1,13.5,2.9,29.4-8,39.6l-19.3,18
				c-0.2,0.2-0.4,0.5-0.6,0.8c-2,4.1,1,15.1,10.6,31.7c10.8,18.7,19.2,26.1,23,25l25.3-7.7c14.2-4.3,29.6,0.8,38.2,12.9l15.7,21.7
				c10.2,14.1,8.3,33.5-4.3,45.5L232.4,277c-9.5,9-22.8,12.8-35.6,10.1c-37.5-7.8-71.1-38-101.1-90c-30-52-39.4-96.3-27.3-132.7
				C72.5,52.1,82.3,42.5,94.8,38.7z M99.4,54.1c-7.5,2.3-13.4,8-15.9,15.4c-10.4,31.4-2,71.2,26,119.6
				c27.9,48.4,58.2,75.6,90.5,82.3c7.7,1.6,15.7-0.7,21.4-6.1l13.5-12.7c6.8-6.4,7.8-16.9,2.3-24.5l-15.7-21.7
				c-4.7-6.5-13-9.3-20.6-6.9l-25.3,7.7c-14,4.2-27.2-7.5-41.5-32.3c-12.1-21-16.3-36.2-11.1-46.8c1-2,2.4-3.9,4-5.4l19.3-18
				c5.8-5.5,7.6-14,4.3-21.3l-11-24.5c-3.8-8.6-13.4-12.9-22.4-10.2L99.4,54.1z"/>
		</g>
	</g>
</g>
</svg>
