<?xml version="1.0" encoding="utf-8"?>
<!-- Generator: Adobe Illustrator 25.0.0, SVG Export Plug-In . SVG Version: 6.00 Build 0)  -->
<svg version="1.1" id="Layer_1" xmlns="http://www.w3.org/2000/svg" xmlns:xlink="http://www.w3.org/1999/xlink" x="0px" y="0px"
	 viewBox="0 0 320 320" style="enable-background:new 0 0 320 320;" xml:space="preserve">
<path d="M231.4,163.9h3.9c29.1,0,52.6-23.6,52.6-52.6v0c0-31.6-25.6-57.1-57.1-57.1h0c-33.7,0-61.1,27.3-61.1,61.1v30
	c0,33.5,7,60,20.9,79.4c9.7,13.4,24.1,25.8,43.3,37c14.9,8.7,34.2,3.3,42.3-12l0,0c6.1-11.6,2.3-26.1-8.9-32.9
	c-10.1-6.1-17.6-12.2-22.6-18.3C236.7,188.6,232.3,177.1,231.4,163.9z M93.6,163.9h3.9c29.1,0,52.6-23.6,52.6-52.6v0
	c0-31.6-25.6-57.1-57.1-57.1h0c-33.7,0-61.1,27.3-61.1,61.1v30c0,33.5,7,60,20.9,79.4c9.7,13.4,24.1,25.8,43.3,37
	c14.9,8.7,34.2,3.3,42.3-12l0,0c6.1-11.6,2.3-26.1-8.9-32.9c-10.1-6.1-17.6-12.2-22.6-18.3C98.9,188.6,94.5,177.1,93.6,163.9z"/>
</svg>
