<?xml version="1.0" encoding="utf-8"?>
<!-- Generator: Adobe Illustrator 25.0.0, SVG Export Plug-In . SVG Version: 6.00 Build 0)  -->
<svg version="1.1" id="Layer_1" xmlns="http://www.w3.org/2000/svg" xmlns:xlink="http://www.w3.org/1999/xlink" x="0px" y="0px"
	 viewBox="0 0 320 320" style="enable-background:new 0 0 320 320;" xml:space="preserve">
<g>
	<circle cx="160" cy="159.7" r="22.9"/>
	<path d="M274.8,137c-7.9-6.6-19.1-12.5-32.4-17c-2.6-0.9-5.4-1.8-8.2-2.6c0.5-1.9,0.9-3.8,1.3-5.6c6.4-30.8,1.9-54.9-11.8-62.7
		c-6.7-3.8-15.8-3.8-26.3,0c-9.7,3.6-20.4,10.3-30.9,19.5c-2.1,1.9-4.3,3.8-6.4,5.9c-1.4-1.4-2.8-2.7-4.3-4
		c-23.5-20.9-46.6-29-60.2-21.1C89,53.2,84.5,61,82.6,72.1c-1.7,10.2-1.2,22.8,1.5,36.5c0.5,2.8,1.2,5.6,1.9,8.5
		c-3.3,0.9-6.5,1.9-9.5,3C48.6,129.8,32,144.6,32,159.7c0,7.9,4.6,16,13.4,23.5c8.2,7.1,19.8,13.3,33.4,17.9c2.2,0.8,4.6,1.5,7,2.2
		c-0.8,3.1-1.4,6.1-2,9.1c-5.5,28.9-1,50.7,12.1,58.3c3.5,2,7.6,3,12.2,3c4.5,0,9.5-1,14.8-2.9c10.2-3.6,21.4-10.5,32.2-20
		c1.8-1.5,3.5-3.2,5.3-4.9c2.3,2.2,4.6,4.3,6.9,6.3c16.4,14.1,32.1,21.6,44.5,21.6c4.5,0,8.6-1,12-3c6.8-4,11.6-12,13.7-23.4
		c2-10.7,1.5-23.8-1.3-37.9c-0.4-2.2-1-4.5-1.5-6.9c1.6-0.5,3.2-1,4.8-1.5c29.9-9.9,48.4-25.8,48.4-41.5
		C288,152,283.4,144.2,274.8,137z M201.2,59.3c7.3-2.7,13.4-3,17.1-0.8c7.3,4.2,12.5,22,6.5,51c-0.3,1.7-0.7,3.3-1.2,5
		c-10.6-2.5-22.2-4.3-34.3-5.4c-7-10-14.3-19.1-21.6-27c2-1.9,3.9-3.7,5.9-5.4C183.3,68.5,192.8,62.4,201.2,59.3z M195.8,180.6
		c-4,7-8.1,13.6-12.2,19.8c-7.6,0.5-15.5,0.8-23.5,0.8c-8,0-15.7-0.2-23.2-0.7c-4.4-6.4-8.6-13-12.5-19.8c-4-6.8-7.6-13.8-10.9-20.6
		c3.3-6.9,6.9-13.8,10.9-20.6l0,0c4-6.9,8.1-13.5,12.4-19.8c7.6-0.6,15.4-0.9,23.3-0.9c7.9,0,15.7,0.3,23.3,0.9
		c4.2,6.3,8.4,12.8,12.4,19.7c4,7,7.7,13.8,11,20.5C203.4,166.7,199.8,173.7,195.8,180.6z M212.7,172.5c3.4,7.8,6.3,15.4,8.6,22.5
		c-7.4,1.7-15.4,3.1-23.9,4.1c2.7-4.2,5.3-8.5,7.9-13C207.9,181.5,210.3,177,212.7,172.5z M160.5,230.3
		c-5.2-5.6-10.4-11.8-15.4-18.4c4.9,0.2,9.9,0.3,15,0.3c5.2,0,10.4-0.1,15.5-0.4C170.5,218.6,165.5,224.8,160.5,230.3z M122.9,199.3
		c-8.4-0.9-16.3-2.2-23.6-3.8c2.3-7.3,5-14.9,8.3-22.6c2.3,4.4,4.7,8.8,7.2,13.2C117.5,190.6,120.2,195,122.9,199.3z M114.9,133.9
		c-2.5,4.4-5,8.8-7.2,13.3c-3.2-7.5-5.9-15-8.1-22.2c7.3-1.6,15.1-3,23.2-4C120.1,125.2,117.4,129.5,114.9,133.9z M160.2,90
		c5,5.4,10.1,11.5,15,18.1c-5-0.2-10.1-0.4-15.2-0.4c-5,0-10,0.1-15,0.4C150,101.6,155,95.6,160.2,90z M205.2,133.8
		c-2.5-4.4-5.1-8.6-7.8-12.8c8.2,1,16,2.4,23.4,4.1c-2.2,7.1-5,14.5-8.2,22.1C210.2,142.8,207.8,138.3,205.2,133.8z M94.8,106.6
		c-2.5-12.4-2.9-23.7-1.4-32.6c1.3-7.7,4.1-13.1,7.8-15.2c7.3-4.2,25.3,0.2,47.4,19.9c1.3,1.1,2.6,2.3,3.8,3.6
		c-7.4,8-14.8,17.1-21.7,26.9c-12,1.1-23.6,2.9-34.2,5.3C95.9,111.8,95.3,109.1,94.8,106.6z M82.4,190.8
		C55.3,181.6,43,168.2,43,159.7c0-8.2,11.5-20.4,37.1-29.3c2.8-1,5.7-1.9,8.8-2.8c3.2,10.5,7.4,21.4,12.5,32.4
		c-5.1,11.2-9.4,22.2-12.6,32.8C86.6,192.2,84.4,191.5,82.4,190.8z M108.1,262.8c-2.8,0-5.1-0.5-6.8-1.5c-7-4.1-11.9-20.1-6.8-46.8
		c0.5-2.8,1.1-5.6,1.9-8.5c10.4,2.3,22,4,34.5,5c7.1,10,14.5,19.1,22,27.2c-1.6,1.6-3.3,3.1-4.9,4.5
		C131.5,257.1,117.2,262.8,108.1,262.8z M225.7,211.7c5.6,28.1,0.2,45.4-7.2,49.7c-7.1,4.1-23.4,0.3-43.9-17.4
		c-2.1-1.8-4.3-3.8-6.5-5.9c7.2-7.9,14.4-17,21.5-27.3c12.4-1.1,24.1-2.9,34.6-5.3C224.8,207.6,225.3,209.7,225.7,211.7z
		 M236.1,190.9c-1.4,0.5-2.8,0.9-4.3,1.4c-3.2-10.2-7.6-21.1-13-32.4c5.1-11,9.3-21.8,12.5-32c2.6,0.8,5.2,1.5,7.6,2.4
		c12,4.1,22,9.4,28.9,15.1c6,5,9.3,10.1,9.3,14.4C277.1,168.2,264.3,181.5,236.1,190.9z"/>
</g>
</svg>
