<?xml version="1.0" encoding="utf-8"?>
<!-- Generator: Adobe Illustrator 25.0.0, SVG Export Plug-In . SVG Version: 6.00 Build 0)  -->
<svg version="1.1" id="Layer_1" xmlns="http://www.w3.org/2000/svg" xmlns:xlink="http://www.w3.org/1999/xlink" x="0px" y="0px"
	 viewBox="0 0 320 320" style="enable-background:new 0 0 320 320;" xml:space="preserve">
<g id="comp_x5F_288-sass">
	<g>
		<path d="M252.4,174.4c-9,0-16.7,2.2-23.2,5.4c-2.4-4.8-4.8-8.9-5.2-12c-0.5-3.6-1-5.8-0.4-10.1c0.6-4.3,3.1-10.4,3-10.9
			c0-0.4-0.6-2.6-5.7-2.7c-5.2,0-9.6,1-10.1,2.4c-0.5,1.4-1.5,4.4-2.1,7.6c-0.9,4.7-10.3,21.4-15.6,30.1c-1.8-3.4-3.2-6.4-3.6-8.8
			c-0.5-3.6-1-5.8-0.4-10.1c0.6-4.3,3.1-10.4,3-10.9c0-0.4-0.6-2.6-5.7-2.7c-5.2,0-9.6,1-10.1,2.4c-0.5,1.4-1.1,4.6-2.1,7.6
			c-1,3.1-13.6,30.9-16.8,38.1c-1.7,3.7-3.1,6.6-4.2,8.6c-0.2,0.3-0.3,0.5-0.4,0.7c0.1-0.2,0.2-0.4,0.2-0.3
			c-0.9,1.7-1.4,2.7-1.4,2.7v0c-0.7,1.3-1.4,2.4-1.8,2.4c-0.2,0-0.8-3.4,0.1-8c1.9-9.7,6.3-24.7,6.3-25.2c0-0.3,0.8-2.9-2.9-4.3
			c-3.6-1.3-5,0.9-5.3,0.9c-0.3,0-0.6,0.8-0.6,0.8s4-17-7.8-17c-7.4,0-17.6,8.1-22.6,15.4c-3.2,1.7-10,5.4-17.2,9.4
			c-2.8,1.5-5.6,3.1-8.3,4.6c-0.2-0.2-0.4-0.4-0.6-0.6c-14.3-15.3-40.7-26.1-39.6-46.6c0.4-7.5,3-27.1,50.8-50.9
			c39.2-19.5,70.5-14.2,75.9-2.2c7.8,17-16.8,48.6-57.5,53.2c-15.5,1.7-23.7-4.3-25.7-6.5c-2.1-2.4-2.4-2.5-3.2-2
			c-1.3,0.7-0.5,2.8,0,4c1.2,3.2,6.2,8.8,14.7,11.6c7.5,2.4,25.7,3.8,47.7-4.7c24.7-9.5,43.9-36,38.3-58.2
			c-5.8-22.6-43.1-30-78.5-17.4C92.8,77.6,70,89.3,53.6,104.7c-19.5,18.2-22.6,34.1-21.3,40.7c4.6,23.6,37,38.9,50,50.3
			c-0.6,0.4-1.2,0.7-1.8,1c-6.5,3.2-31.3,16.2-37.5,29.9c-7,15.5,1.2,26.6,6.5,28.2c16.7,4.6,33.8-3.7,43-17.4
			c9.2-13.7,8.1-31.6,3.8-39.8c0-0.1-0.1-0.2-0.2-0.3c1.7-1,3.4-2,5.1-3c3.3-2,6.6-3.8,9.4-5.3c-1.6,4.3-2.8,9.5-3.4,17
			c-0.7,8.8,2.9,20.2,7.6,24.7c2.1,2,4.6,2,6.2,2c5.5,0,8-4.6,10.8-10c3.4-6.6,6.4-14.4,6.4-14.4s-3.8,20.9,6.5,20.9
			c3.8,0,7.5-4.8,9.2-7.3v0c0,0,0.1-0.2,0.3-0.5c0.4-0.6,0.6-1,0.6-1v-0.1c1.5-2.6,4.8-8.6,9.8-18.4c6.5-12.7,12.7-28.6,12.7-28.6
			s0.6,3.9,2.5,10.3c1.1,3.8,3.5,8,5.4,12c-1.5,2.1-2.4,3.3-2.4,3.3s0,0,0,0.1c-1.2,1.6-2.6,3.3-4,5c-5.1,6.1-11.2,13-12,15
			c-1,2.4-0.7,4.1,1.1,5.5c1.4,1,3.8,1.2,6.3,1c4.6-0.3,7.8-1.4,9.4-2.2c2.5-0.9,5.4-2.3,8.1-4.2c5-3.7,8-9,7.8-15.9
			c-0.2-3.8-1.4-7.7-2.9-11.3c0.4-0.6,0.9-1.3,1.4-2c7.9-11.6,14-24.2,14-24.2s0.6,3.9,2.5,10.3c1,3.2,2.8,6.8,4.6,10.3
			c-7.4,6-12,13-13.6,17.6c-3,8.5-0.6,12.4,3.7,13.2c2,0.4,4.8-0.5,6.8-1.4c2.6-0.9,5.7-2.3,8.6-4.4c5-3.7,9.8-8.8,9.5-15.8
			c-0.1-3.2-1-6.3-2.2-9.4c6.3-2.6,14.4-4.1,24.8-2.9c22.3,2.6,26.6,16.5,25.8,22.3c-0.8,5.8-5.5,9-7.1,10c-1.6,1-2,1.3-1.9,2
			c0.2,1,0.9,1,2.2,0.8c1.8-0.3,11.7-4.7,12.1-15.5C288.6,189.2,275.5,174.2,252.4,174.4L252.4,174.4z M80.7,232.2
			c-7.4,8-17.7,11.1-22.1,8.5c-4.8-2.8-2.9-14.6,6.2-23.2c5.5-5.2,12.6-10,17.4-13c1.1-0.6,2.6-1.6,4.6-2.8c0.3-0.2,0.5-0.3,0.5-0.3
			c0.4-0.2,0.8-0.4,1.2-0.7C91.7,213.1,88.5,223.8,80.7,232.2L80.7,232.2z M134.5,195.7c-2.6,6.3-8,22.3-11.2,21.4
			c-2.8-0.7-4.5-12.9-0.6-24.9c2-6,6.2-13.2,8.8-16c4-4.5,8.5-6,9.5-4.2C142.3,174.4,136.1,191.7,134.5,195.7L134.5,195.7z
			 M178.8,216.9c-1.1,0.6-2.1,0.9-2.6,0.6c-0.4-0.2,0.4-1,0.4-1s5.6-6,7.8-8.7c1.3-1.6,2.8-3.5,4.4-5.6c0,0.2,0,0.4,0,0.6
			C188.8,210.1,182,214.9,178.8,216.9z M213.1,209.1c-0.8-0.6-0.7-2.4,2-8.3c1-2.3,3.4-6.1,7.6-9.8c0.5,1.5,0.8,3,0.8,4.3
			C223.4,204.3,217,207.7,213.1,209.1L213.1,209.1z"/>
	</g>
</g>
<g id="Layer_1_1_">
</g>
</svg>
