<?xml version="1.0" encoding="utf-8"?>
<!-- Generator: Adobe Illustrator 25.0.1, SVG Export Plug-In . SVG Version: 6.00 Build 0)  -->
<svg version="1.1" id="Layer_1" xmlns="http://www.w3.org/2000/svg" xmlns:xlink="http://www.w3.org/1999/xlink" x="0px" y="0px"
	 viewBox="0 0 320 320" style="enable-background:new 0 0 320 320;" xml:space="preserve">
<style type="text/css">
	.st0{fill:#212121;}
</style>
<desc>Created with Sketch.</desc>
<desc>Created with Sketch.</desc>
<desc>Created with Sketch.</desc>
<desc>Created with Sketch.</desc>
<desc>Created with Sketch.</desc>
<desc>Created with Sketch.</desc>
<path class="st0" d="M50.7,133.9c-24.5,24.5-24.5,64.3,0,88.9c21.6,21.6,55.1,24.2,79.5,7.7l54.3,54.3c3.9,3.9,10.1,3.9,13.9,0
	c3.5-3.5,3.8-9,1-12.8l-1-1.1L144.6,217c19.3-24.7,17.6-60.4-5.1-83.1C115,109.3,75.2,109.3,50.7,133.9z M160.2,32.4
	c-60.7,0-111.4,42.3-124.4,99.1c1.8-2.3,3.8-4.5,5.9-6.6c6.7-6.7,14.4-11.9,22.6-15.6c12-22.7,31.9-40.7,56.1-50.2l-1.4,2.2
	c-6.9,11.4-12.4,25.7-16.3,41.8c6.4,0.7,12.6,2.1,18.7,4.3c8.1-33.5,23.3-55.9,38.7-55.9l1.5,0.1c16.1,1.5,31.7,27,39,63.7l-63.7,0
	c4.1,2.7,8,5.9,11.7,9.6c3,3,5.7,6.2,8.1,9.6l46.9,0c0.9,8.2,1.3,16.7,1.3,25.5c0,13.5-1.1,26.4-3.1,38.3l-33.7,0
	c-1,3.6-2.3,7.2-3.8,10.7l-1.6,3.5l-1.6,2.9l2,2l34.6,0c-2.6,9.5-5.7,18.1-9.3,25.3l14.1,14.1c6.3-10.9,11.4-24.3,15-39.4l34.7,0
	c-11.4,18.2-27.9,32.7-47.6,41.6l2.9,2.9l1.6,1.8c2.8,3.8,4.4,8,4.8,12.2c43.6-20.3,73.9-64.5,73.9-115.8
	C287.7,89.5,230.6,32.4,160.2,32.4z M125.6,147.8c16.8,16.8,16.8,44.1,0,61c-16.8,16.8-44.1,16.8-61,0s-16.8-44.1,0-61
	C81.4,131,108.7,131,125.6,147.8z M222.7,134.4l42.8,0l0.1,0.4c1.9,8.1,2.9,16.5,2.9,25.1c0,13.5-2.5,26.4-6.9,38.3l-40.5,0
	c1.8-12.1,2.8-25,2.8-38.3C224,151.2,223.5,142.7,222.7,134.4z M199.9,59l0.3,0.1c26.1,10.4,47.2,30.6,58.8,56.1l-38.9,0
	C216.1,92.9,209.2,73.5,199.9,59z"/>
</svg>
