<?xml version="1.0" encoding="utf-8"?>
<!-- Generator: Adobe Illustrator 25.0.1, SVG Export Plug-In . SVG Version: 6.00 Build 0)  -->
<svg version="1.1" id="Layer_1" xmlns="http://www.w3.org/2000/svg" xmlns:xlink="http://www.w3.org/1999/xlink" x="0px" y="0px"
	 viewBox="0 0 320 320" style="enable-background:new 0 0 320 320;" xml:space="preserve">
<style type="text/css">
	.st0{fill:#212121;}
</style>
<desc>Created with Sketch.</desc>
<desc>Created with Sketch.</desc>
<desc>Created with Sketch.</desc>
<desc>Created with Sketch.</desc>
<g id="_xD83D__xDD0D_-Product-Icons">
	<g id="ic_fluent_share_android_24_regular">
		<path id="_xD83C__xDFA8_-Color" class="st0" d="M230.5,32c26,0,47.1,21.1,47.1,47.1s-21.1,47.1-47.1,47.1
			c-13.8,0-26.3-6-34.9-15.5l-61.3,35c1.4,4.4,2.1,9.2,2.1,14.1c0,4.9-0.7,9.6-2.1,14.1l61.2,35c8.6-9.5,21.1-15.5,34.9-15.5
			c26,0,47.1,21.1,47.1,47.1s-21.1,47.1-47.1,47.1s-47.1-21.1-47.1-47.1c0-4.9,0.7-9.6,2.1-14.1l-61.2-35
			c-8.6,9.5-21.1,15.5-34.9,15.5c-26,0-47.1-21.1-47.1-47.1s21.1-47.1,47.1-47.1c13.8,0,26.3,6,34.9,15.5l61.3-35
			c-1.4-4.4-2.1-9.2-2.1-14.1C183.5,53.1,204.5,32,230.5,32z M230.5,213.4c-14.9,0-26.9,12-26.9,26.9c0,14.9,12,26.9,26.9,26.9
			c14.9,0,26.9-12,26.9-26.9C257.4,225.4,245.4,213.4,230.5,213.4z M89.5,132.8c-14.9,0-26.9,12-26.9,26.9s12,26.9,26.9,26.9
			s26.9-12,26.9-26.9S104.3,132.8,89.5,132.8z M230.5,52.2c-14.9,0-26.9,12-26.9,26.9s12,26.9,26.9,26.9c14.9,0,26.9-12,26.9-26.9
			S245.4,52.2,230.5,52.2z"/>
	</g>
</g>
</svg>
