<?xml version="1.0" encoding="utf-8"?>
<!-- Generator: Adobe Illustrator 25.0.1, SVG Export Plug-In . SVG Version: 6.00 Build 0)  -->
<svg version="1.1" id="Layer_1" xmlns="http://www.w3.org/2000/svg" xmlns:xlink="http://www.w3.org/1999/xlink" x="0px" y="0px"
	 viewBox="0 0 320 320" style="enable-background:new 0 0 320 320;" xml:space="preserve">
<style type="text/css">
	.st0{fill:#212121;}
</style>
<desc>Created with Sketch.</desc>
<desc>Created with Sketch.</desc>
<desc>Created with Sketch.</desc>
<desc>Created with Sketch.</desc>
<desc>Created with Sketch.</desc>
<desc>Created with Sketch.</desc>
<desc>Created with Sketch.</desc>
<desc>Created with Sketch.</desc>
<desc>Created with Sketch.</desc>
<g id="_xD83D__xDD0D_-System-Icons">
	<g id="ic_fluent_eye_show_24_regular">
		<path id="_xD83C__xDFA8_-Color" class="st0" d="M160,130.4c29.1,0,52.7,23.6,52.7,52.7s-23.6,52.7-52.7,52.7s-52.7-23.6-52.7-52.7
			S130.9,130.4,160,130.4z M160,150.2c-18.2,0-32.9,14.7-32.9,32.9S141.8,216,160,216s32.9-14.7,32.9-32.9S178.2,150.2,160,150.2z
			 M160,84.3c60.7,0,113.2,41.5,127.7,99.6c1.3,5.3-1.9,10.7-7.2,12c-5.3,1.3-10.7-1.9-12-7.2C256.2,139.3,211.6,104,160,104
			c-51.7,0-96.3,35.3-108.6,84.7c-1.3,5.3-6.7,8.5-12,7.2c-5.3-1.3-8.5-6.7-7.2-12C46.8,125.8,99.2,84.3,160,84.3z"/>
	</g>
</g>
</svg>
