<?xml version="1.0" encoding="utf-8"?>
<!-- Generator: Adobe Illustrator 25.0.1, SVG Export Plug-In . SVG Version: 6.00 Build 0)  -->
<svg version="1.1" id="Layer_1" xmlns="http://www.w3.org/2000/svg" xmlns:xlink="http://www.w3.org/1999/xlink" x="0px" y="0px"
	 viewBox="0 0 320 320" style="enable-background:new 0 0 320 320;" xml:space="preserve">
<style type="text/css">
	.st0{fill:#212121;}
</style>
<desc>Created with Sketch.</desc>
<desc>Created with Sketch.</desc>
<g>
	<path class="st0" d="M148.9,190.8l44.8-44.8c3.2-3.2,8.5-3.2,11.7,0c3.2,3.2,3.2,8.5,0,11.7l-44.8,44.8c-27.9,27.9-73.3,28-101.2,0
		c-27.9-27.9-27.9-73.3,0-101.2L105.7,55l-40.7,0c-4.6,0-8.3-3.7-8.3-8.3c0-4.6,3.7-8.3,8.3-8.3l60.5,0c1.6,0,3,0.4,4.2,1.2
		c0.6,0.4,1.2,0.8,1.7,1.3c1.7,1.7,2.5,3.8,2.4,6l0,60.4c0,4.6-3.7,8.3-8.3,8.3c-4.6,0-8.3-3.7-8.3-8.3V66.7L71,113
		c-21.5,21.5-21.5,56.4,0,77.9S127.4,212.3,148.9,190.8z"/>
	<path class="st0" d="M171.1,129.2l-44.8,44.8c-3.2,3.2-8.5,3.2-11.7,0c-3.2-3.2-3.2-8.5,0-11.7l44.8-44.8
		c27.9-27.9,73.3-28,101.2,0c27.9,27.9,27.9,73.3,0,101.2L214.3,265l40.7,0c4.6,0,8.3,3.7,8.3,8.3c0,4.6-3.7,8.3-8.3,8.3l-60.5,0
		c-1.6,0-3-0.4-4.2-1.2c-0.6-0.4-1.2-0.8-1.7-1.3c-1.7-1.7-2.5-3.8-2.4-6l0-60.4c0-4.6,3.7-8.3,8.3-8.3s8.3,3.7,8.3,8.3v40.7
		L249,207c21.5-21.5,21.5-56.4,0-77.9S192.6,107.7,171.1,129.2z"/>
</g>
</svg>
