<?xml version="1.0" encoding="utf-8"?>
<!-- Generator: Adobe Illustrator 25.0.0, SVG Export Plug-In . SVG Version: 6.00 Build 0)  -->
<svg version="1.1" id="Layer_1" xmlns="http://www.w3.org/2000/svg" xmlns:xlink="http://www.w3.org/1999/xlink" x="0px" y="0px"
	 viewBox="0 0 320 320" style="enable-background:new 0 0 320 320;" xml:space="preserve">
<style type="text/css">
	.st0{fill:#212121;}
</style>
<g>
	<path class="st0" d="M160,252.6c4.1,0,7.5,3.1,8,7.2l0,0.8V280c0,4.4-3.6,8-8,8c-4.1,0-7.5-3.1-8-7.2l0-0.8v-19.4
		C152,256.1,155.5,252.6,160,252.6z M236.1,224.6l0.6,0.6l13.7,13.7c3.1,3.1,3.1,8.2,0,11.3c-2.9,2.9-7.5,3.1-10.7,0.6l-0.6-0.6
		l-13.7-13.7c-3.1-3.1-3.1-8.2,0-11.3C228.4,222.3,233,222.1,236.1,224.6z M94.4,225.2c2.9,2.9,3.1,7.5,0.6,10.7l-0.6,0.6
		l-13.7,13.7c-3.1,3.1-8.2,3.1-11.3,0c-2.9-2.9-3.1-7.5-0.6-10.7l0.6-0.6l13.7-13.7C86.3,222.1,91.3,222.1,94.4,225.2z M160,90.1
		c38.6,0,69.9,31.3,69.9,69.9c0,38.6-31.3,69.9-69.9,69.9c-38.6,0-69.9-31.3-69.9-69.9C90.1,121.4,121.4,90.1,160,90.1z M160,106.1
		c-29.8,0-53.9,24.1-53.9,53.9s24.1,53.9,53.9,53.9c29.8,0,53.9-24.1,53.9-53.9S189.8,106.1,160,106.1z M279.9,152.2
		c4.4,0,8,3.6,8,8c0,4.1-3.1,7.5-7.2,8l-0.8,0h-19.4c-4.4,0-8-3.6-8-8c0-4.1,3.1-7.5,7.2-8l0.8,0H279.9z M59.6,151.9
		c4.4,0,8,3.6,8,8c0,4.1-3.1,7.5-7.2,8l-0.8,0H40.1c-4.4,0-8-3.6-8-8c0-4.1,3.1-7.5,7.2-8l0.8,0H59.6z M80,69.2l0.6,0.6l13.7,13.7
		c3.1,3.1,3.1,8.2,0,11.3c-2.9,2.9-7.5,3.1-10.7,0.6l-0.6-0.6L69.4,81.1c-3.1-3.1-3.1-8.2,0-11.3C72.3,66.8,76.9,66.6,80,69.2z
		 M250.5,69.7c2.9,2.9,3.1,7.5,0.6,10.7l-0.6,0.6l-13.7,13.7c-3.1,3.1-8.2,3.1-11.3,0c-2.9-2.9-3.1-7.5-0.6-10.7l0.6-0.6l13.7-13.7
		C242.3,66.6,247.4,66.6,250.5,69.7z M160,32c4.1,0,7.5,3.1,8,7.2l0,0.8v19.4c0,4.4-3.6,8-8,8c-4.1,0-7.5-3.1-8-7.2l0-0.8V40
		C152,35.6,155.6,32,160,32z"/>
</g>
</svg>
