<?xml version="1.0" encoding="utf-8"?>
<!-- Generator: Adobe Illustrator 25.0.1, SVG Export Plug-In . SVG Version: 6.00 Build 0)  -->
<svg version="1.1" id="Layer_1" xmlns="http://www.w3.org/2000/svg" xmlns:xlink="http://www.w3.org/1999/xlink" x="0px" y="0px"
	 viewBox="0 0 320 320" style="enable-background:new 0 0 320 320;" xml:space="preserve">
<style type="text/css">
	.st0{fill:#212121;}
</style>
<desc>Created with Sketch.</desc>
<desc>Created with Sketch.</desc>
<desc>Created with Sketch.</desc>
<desc>Created with Sketch.</desc>
<desc>Created with Sketch.</desc>
<desc>Created with Sketch.</desc>
<desc>Created with Sketch.</desc>
<g id="_xD83D__xDD0D_-Product-Icons">
	<g id="ic_fluent_checkmark_circle_24_filled">
		<path id="_xD83C__xDFA8_-Color" class="st0" d="M160,32c70.7,0,128,57.3,128,128s-57.3,128-128,128S32,230.7,32,160
			S89.3,32,160,32z M201.2,121.2L144,178.4l-25.2-25.2c-3.7-3.7-9.8-3.7-13.6,0c-3.7,3.7-3.7,9.8,0,13.6l32,32
			c3.7,3.7,9.8,3.7,13.6,0l64-64c3.7-3.7,3.7-9.8,0-13.6C211,117.5,205,117.5,201.2,121.2z"/>
	</g>
</g>
</svg>
