<?xml version="1.0" encoding="utf-8"?>
<!-- Generator: Adobe Illustrator 25.0.0, SVG Export Plug-In . SVG Version: 6.00 Build 0)  -->
<svg version="1.1" id="Layer_1" xmlns="http://www.w3.org/2000/svg" xmlns:xlink="http://www.w3.org/1999/xlink" x="0px" y="0px"
	 viewBox="0 0 320 320" style="enable-background:new 0 0 320 320;" xml:space="preserve">
<g>
	<path d="M131.2,93.5c-5.7,0.9-10.2,7.1-9.3,12.9c0.8,5,4.1,7.8,8.6,7.2c5.8-0.8,10.5-7.3,9.7-13.4
		C139.5,95.6,135.8,92.8,131.2,93.5z M111.3,95.4c16.1-5.6,32.3-11.2,48.4-17.1c2.5-0.9,4.9-2.8,6.6-4.9c2.3-2.8,2.1-6.8,0.1-9.3
		c-2-2.6-5.3-3.4-9-2.1c-8,2.7-16,5.4-24,8.3C115.6,76.6,97.8,83.1,80,89.2c-13.6,4.7-27.3,9-41,13.4c-5.2,1.7-8.2,7.6-6.5,12.9
		c1.5,4.6,5,5.7,11.2,3.5c8.5-3,17.1-6.1,25.6-9c7.1-2.4,14.3-4.7,21.9-7.1c-0.1,1.2-0.2,1.9-0.3,2.6c-4.9,31.5-9.9,62.9-14.6,94.5
		c-2.2,15-3.6,30.1-5.3,45.2c-0.4,3.3,0.6,6.1,3.7,7.6c3.1,1.6,6.1,1,8.8-0.9c2.6-1.8,4-4.4,4.4-7.6c0.6-6.1,1.1-12.2,1.9-18.3
		c6.1-42.5,12.4-84.9,18.5-127.4C108.6,96.4,109.7,95.9,111.3,95.4z M226.8,239c-1.1-0.6-1.5-2.1-0.8-3.2c0.6-0.9,1.1-2,1.4-3.1
		c0.1-0.5,0.2-1.1,0.1-1.7L209,101.6c0-0.1,0-0.2,0-0.3c0.4-4.2-1.6-7.3-4.7-8.5c-3.2-1.2-7.4-0.3-9.8,2.8c-1.6,2.1-2.9,4.6-3.6,7.2
		c-2.2,7.8-4,15.8-6.1,23.6c-1.6,6-1.9,7.3-4.6,16.6c-1.3,4.1-3.1,12.3-5.8,17.9c-0.7,1.5-2.3,1.2-3.7,0.4c-1.3-0.8-2.7-2.3-3.2-3.3
		c-1.6-3.1-2.5-5.7-1.8-11.9c1.2-10.1,4-20.3,5.3-30.4c0.4-3.1-0.4-5.9-3.2-7.6c-2.8-1.8-5.8-1.4-8.6,0.2c-3,1.7-4.5,4.5-5.4,7.7
		c-2.9,9.9-5.4,20-8.8,29.8c-2.8,8-6.7,15.7-10.2,23.5c-0.2,0.5-0.5,1-0.8,1.4c-0.6,0.9-2,0.4-2.1-0.6c-0.1-1.9,0-3.7,0.2-5.5
		c1-8,2.2-15.9,3.1-23.9c0.5-4.5,1-9.1,0.6-13.5c-0.5-6.7-6.5-9.8-12.6-6.9c-1.7,0.8-3.2,2.1-4.9,2.9c-1.9,1-3.4,4.5-5.5,8.4
		c0,0.1-0.1,0.1-0.1,0.2l-0.9,3c-0.3,0.9,0.6,1.8,1.5,1.4c1.5-0.5,2.9-1.3,4.7-1.8c0.8-0.2,1.6,0.4,1.5,1.3
		c-0.9,6.8-2.9,18.7-3.4,24.4c-0.5,6-1.4,12.1-0.8,18c1,10.1,9.9,15.1,19.2,11.1c3.2-1.4,6.4-3.6,8.9-6c2.8-2.8,9.3-12.7,12.3-19.3
		c0.4-0.9,1.6-0.9,2.1-0.1c3.1,6,7.1,15.2,12.6,14.8c6.2-0.4,7.7-2.5,12.4-6.9c0.1,0,0.1-0.1,0.1-0.2c6.6-8.6,12.3-24,15.1-32.1
		c0.4-1.2,2.1-1,2.2,0.3c2.4,23.1,9.5,67,10.7,92.1c0,0.3,0,0.6,0,0.9c-0.2,2.9,1.1,5.2,3.2,6.5c1.2,0.8,1.5,2.3,0.7,3.5
		c-1.8,2.4-2.7,5.4-2.2,8.4c0.8,5,4.1,7.8,8.6,7.2c5.8-0.8,10.5-7.3,9.7-13.4C230.3,242.2,228.8,240.1,226.8,239z M188,185.1
		c-1.5,0.5-3.9,1.5-6.4,2.3c-16.1,5.5-36.6,10.5-52.6,16.1c-8.6,3-17.2,6.3-25.7,9.7c-5.3,2.2-7.8,8-5.8,12.3
		c1.9,4.2,6.2,5.1,12,2.7c5-2.1,10.1-4.1,15.2-5.9c20.3-7,44.9-13.5,65.2-20.5c3.3-1.1,5.9-3,7.4-6.2c1.3-2.9,1.3-5.7-0.7-8.3
		C194.7,185,192,184.3,188,185.1z M287.5,166.5c-1.5-4.3-5.7-5.7-11.7-3.9c-5.2,1.5-10.4,3-15.7,4.3c-20.9,4.9,0.1,0.2-20.8,5
		c-3.4,0.8-6.2,2.3-8,5.4c-1.6,2.7-1.9,5.6-0.2,8.3c1.6,2.5,4.1,3.5,7.9,3.3c0.3,0,0.6-0.1,0.9-0.1l14-3.5c8.9-2.1,17.8-4.5,26.5-7
		C286,176.6,289.1,171.1,287.5,166.5z"/>
</g>
</svg>
