<?xml version="1.0" encoding="utf-8"?>
<!-- Generator: Adobe Illustrator 25.0.1, SVG Export Plug-In . SVG Version: 6.00 Build 0)  -->
<svg version="1.1" id="Layer_1" xmlns="http://www.w3.org/2000/svg" xmlns:xlink="http://www.w3.org/1999/xlink" x="0px" y="0px"
	 viewBox="0 0 320 320" style="enable-background:new 0 0 320 320;" xml:space="preserve">
<desc>Created with Sketch.</desc>
<desc>Created with Sketch.</desc>
<desc>Created with Sketch.</desc>
<desc>Created with Sketch.</desc>
<path d="M288,80.6c-9.4,4.2-19.5,7-30.2,8.3c10.8-6.5,19.2-16.8,23.1-29c-10.2,6-21.4,10.4-33.4,12.7C238,62.4,224.3,56,209.2,56
	c-29,0-52.5,23.5-52.5,52.5c0,4.1,0.5,8.1,1.4,12c-43.7-2.2-82.3-23.1-108.3-54.9c-4.5,7.8-7.1,16.8-7.1,26.4
	c0,18.2,9.3,34.3,23.4,43.7c-8.6-0.3-16.7-2.6-23.8-6.6c0,0.2,0,0.4,0,0.7c0,25.5,18.1,46.7,42.1,51.5c-4.4,1.2-9,1.8-13.8,1.8
	c-3.4,0-6.7-0.3-9.9-0.9c6.7,20.9,26.1,36,49.1,36.5c-18,14.1-40.6,22.5-65.2,22.5c-4.2,0-8.4-0.2-12.5-0.7
	c23.2,14.9,50.8,23.6,80.5,23.6c96.6,0,149.4-80,149.4-149.4c0-2.3-0.1-4.5-0.2-6.8C272.1,100.4,281,91.1,288,80.6z"/>
</svg>
