<?xml version="1.0" encoding="utf-8"?>
<!-- Generator: Adobe Illustrator 25.0.0, SVG Export Plug-In . SVG Version: 6.00 Build 0)  -->
<svg version="1.1" id="Layer_1" xmlns="http://www.w3.org/2000/svg" xmlns:xlink="http://www.w3.org/1999/xlink" x="0px" y="0px"
	 viewBox="0 0 320 320" style="enable-background:new 0 0 320 320;" xml:space="preserve">
<path d="M219.6,37.7l-105.4,96.8L57.5,91.8c-4.9-3.7-11.6-4.1-17-1l0,0c-8.9,5.2-10.3,17.6-2.7,24.6L86.5,160l-48.6,44.7
	c-7.6,7-6.3,19.3,2.7,24.6l0,0c5.3,3.1,12,2.7,17-1l56.7-42.8l105.4,96.8c6.5,6,15.9,7.3,23.9,3.5l31.5-15.3
	c7.4-3.6,12.1-11.1,12.1-19.3V68.7c0-8.2-4.7-15.7-12.1-19.3l-31.5-15.3C235.6,30.3,226.1,31.7,219.6,37.7z M230.4,222l-82.3-62
	l82.3-62V222z"/>
</svg>
