<?xml version="1.0" encoding="utf-8"?>
<!-- Generator: Adobe Illustrator 25.0.1, SVG Export Plug-In . SVG Version: 6.00 Build 0)  -->
<svg version="1.1" id="Layer_1" xmlns="http://www.w3.org/2000/svg" xmlns:xlink="http://www.w3.org/1999/xlink" x="0px" y="0px"
	 viewBox="0 0 320 320" style="enable-background:new 0 0 320 320;" xml:space="preserve">
<style type="text/css">
	.st0{fill:#212121;}
</style>
<desc>Created with Sketch.</desc>
<desc>Created with Sketch.</desc>
<desc>Created with Sketch.</desc>
<desc>Created with Sketch.</desc>
<desc>Created with Sketch.</desc>
<desc>Created with Sketch.</desc>
<desc>Created with Sketch.</desc>
<path class="st0" d="M246.7,91.9C221.6,73,191.7,63,160.2,63S98.9,73,73.8,91.9c-1.6,1.2-2.6,3-2.9,4.9c-0.3,2,0.2,4,1.4,5.6
	l39.6,52.6c1.5,2,3.7,3,6,3c1.6,0,3.1-0.5,4.5-1.5c11-8.3,24.1-12.6,37.9-12.6c13.8,0,26.9,4.4,37.9,12.6c3.3,2.5,8,1.8,10.5-1.5
	l39.6-52.6c1.2-1.6,1.7-3.6,1.4-5.6C249.3,94.8,248.3,93.1,246.7,91.9z M200.9,140.3c-10.1-6.2-21.4-9.9-33.2-11.1v-22.8
	c0-4.1-3.4-7.5-7.5-7.5s-7.5,3.4-7.5,7.5v22.8c-11.8,1.1-23.1,4.9-33.2,11.1L88.9,99.5C110.1,85.4,134.6,78,160.2,78
	s50.2,7.4,71.3,21.5L200.9,140.3z"/>
<g>
	<path class="st0" d="M245.1,287.3H74.9c-23.3,0-42.2-18.9-42.2-42.2V74.9c0-23.3,18.9-42.2,42.2-42.2h170.1
		c23.3,0,42.2,18.9,42.2,42.2v170.1C287.3,268.3,268.3,287.3,245.1,287.3z M74.9,51.7c-12.8,0-23.2,10.4-23.2,23.2v170.1
		c0,12.8,10.4,23.2,23.2,23.2h170.1c12.8,0,23.2-10.4,23.2-23.2V74.9c0-12.8-10.4-23.2-23.2-23.2H74.9z"/>
</g>
</svg>
