<?xml version="1.0" encoding="utf-8"?>
<!-- Generator: Adobe Illustrator 22.1.0, SVG Export Plug-In . SVG Version: 6.00 Build 0)  -->
<svg version="1.1" id="Layer_1" xmlns="http://www.w3.org/2000/svg" xmlns:xlink="http://www.w3.org/1999/xlink" x="0px" y="0px"
	 width="64px" height="64px" viewBox="0 0 64 64" style="enable-background:new 0 0 64 64;" xml:space="preserve">
<g>
	<path d="M43.4,36.9c-0.6-0.3-3.7-1.8-4.2-2c-0.6-0.2-1-0.3-1.4,0.3c-0.4,0.6-1.6,2-2,2.4c-0.4,0.4-0.7,0.5-1.3,0.2
		c-0.6-0.3-2.6-1-5-3.1c-1.8-1.6-3.1-3.7-3.5-4.3c-0.4-0.6,0-1,0.3-1.3c0.3-0.3,0.6-0.7,0.9-1.1c0.3-0.4,0.4-0.6,0.6-1
		c0.2-0.4,0.1-0.8,0-1.1c-0.2-0.3-1.4-3.4-1.9-4.6c-0.5-1.2-1-1-1.4-1.1c-0.4,0-0.8,0-1.2,0c-0.4,0-1.1,0.2-1.7,0.8
		c-0.6,0.6-2.2,2.1-2.2,5.2s2.2,6,2.5,6.4c0.3,0.4,4.4,6.7,10.6,9.3c1.5,0.6,2.6,1,3.5,1.3c1.5,0.5,2.8,0.4,3.9,0.2
		c1.2-0.2,3.7-1.5,4.2-2.9c0.5-1.4,0.5-2.7,0.4-2.9C44.4,37.4,44,37.3,43.4,36.9z"/>
	<g>
		<g>
			<path d="M49.7,14.3C45,9.6,38.8,7,32.1,7C18.4,7,7.2,18.1,7.2,31.8c0,4.4,1.1,8.6,3.3,12.4L7,57l13.2-3.4c3.6,2,7.7,3,11.9,3h0
				C45.8,56.6,57,45.5,57,31.8C57,25.2,54.4,19,49.7,14.3z M32,52.6c-3.7,0-7.4-1-10.5-2.9l-0.8-0.5l-7.8,2l2.1-7.6l-0.5-0.8
				c-2.1-3.3-3.2-7.1-3.2-11c0-11.3,9.3-20.6,20.7-20.6c5.5,0,10.7,2.2,14.6,6c3.9,3.9,6.1,9.1,6.1,14.6
				C52.7,43.4,43.4,52.6,32,52.6z"/>
		</g>
	</g>
</g>
</svg>
