<?xml version="1.0" encoding="utf-8"?>
<!-- Generator: Adobe Illustrator 25.0.0, SVG Export Plug-In . SVG Version: 6.00 Build 0)  -->
<svg version="1.1" id="Layer_1" xmlns="http://www.w3.org/2000/svg" xmlns:xlink="http://www.w3.org/1999/xlink" x="0px" y="0px"
	 viewBox="0 0 320 320" style="enable-background:new 0 0 320 320;" xml:space="preserve">
<g id="Layer_1_1_">
</g>
<g>
	<g>
		<path id="WordPress" d="M32,160c0,70.7,57.3,128,128,128s128-57.3,128-128c-0.1-70.7-57.4-128-128-128C89.3,32,32,89.3,32,160z
			 M41.9,160c0-17.1,3.7-33.4,10.2-48.1l56.4,154.4C69,247.1,41.9,206.7,41.9,160z M160,278.1c-11.6,0-22.8-1.7-33.4-4.8l35.5-102.9
			l36.3,99.4c0.2,0.6,0.5,1.1,0.8,1.6C186.9,275.7,173.7,278.1,160,278.1z M255.4,157.7c6.7-16.8,9-30.3,9-42.3
			c0-4.3-0.3-8.4-0.8-12.1c9.2,16.8,14.5,36.1,14.5,56.7c0,43.6-23.6,81.6-58.7,102.1L255.4,157.7z M230,121.4
			c4.5,7.9,9.8,18,9.8,32.6c0,10.1-3,22.9-9,38.2L219,231.5l-42.7-126.9c7.1-0.4,13.5-1.1,13.5-1.1c6.4-0.8,5.6-10.1-0.7-9.8
			c0,0-19.2,1.5-31.5,1.5c-11.6,0-31.1-1.5-31.1-1.5c-6.4-0.4-7.1,9.4-0.8,9.8c0,0,6,0.7,12.4,1.1l18.4,50.4l-25.8,77.5l-43-127.9
			c7.1-0.4,13.5-1.1,13.5-1.1c6.4-0.8,5.6-10.1-0.8-9.8c0,0-19.1,1.5-31.5,1.5c-2.2,0-4.8-0.1-7.6-0.1
			c21.1-32.1,57.4-53.3,98.7-53.3c30.8,0,58.7,11.8,79.7,31c-0.5-0.1-1-0.1-1.5-0.1c-11.6,0-19.8,10.1-19.8,20.9
			C218.4,103.5,224,111.7,230,121.4z"/>
	</g>
</g>
</svg>
