<?xml version="1.0" encoding="utf-8"?>
<!-- Generator: Adobe Illustrator 25.0.1, SVG Export Plug-In . SVG Version: 6.00 Build 0)  -->
<svg version="1.1" id="Layer_1" xmlns="http://www.w3.org/2000/svg" xmlns:xlink="http://www.w3.org/1999/xlink" x="0px" y="0px"
	 viewBox="0 0 256 256" style="enable-background:new 0 0 256 256;" xml:space="preserve">
<style type="text/css">
	.st0{fill:#FFFFFF;}
	.st1{fill:#EEEEEE;}
	.st2{fill-rule:evenodd;clip-rule:evenodd;fill:#EEEEEE;}
	.st3{fill:#D8D8D8;}
	.st4{fill-rule:evenodd;clip-rule:evenodd;fill:#FFAE00;}
	.st5{fill:#232327;}
</style>
<path class="st0" d="M217.5,95.9L217.5,95.9c-5.7-17.2-18.9-32.1-30.5-45.3l-2.7-3.1C171.3,33,161.1,21.4,161.5,7.5V7.2
	c0-3.1-2.3-5.8-5.4-6.1l-0.4,0l-0.1,0.3c-0.5,1.2-0.5,1.6-0.6,2.2l0,0.2c-2.5,18.2,11.6,34.3,26.6,51.3l0.7,0.8
	c11.5,13.1,23.5,26.7,28.5,41.9c2.8,8.4,3.3,16.5,1.6,24.8c-1.9,9.4-6.5,18.7-14.2,28.5l-13.9,15.2c-1.4-0.1-2.8,0.4-3.8,1.4
	L169.2,179l-7.3-7.3c-1.3-1.1-2.7-1.7-4.2-1.7c-1.6,0-3.1,0.6-4.3,1.7l-11,11l-0.4-0.4c-2-1.9-5.1-1.9-7,0c-1.9,2-1.9,5.1,0,7
	l0.4,0.4l-13.9,13.9l30.2,30.2l12.7-12.7l1.3-1.3l0.4,0.4c0.9,0.9,2.2,1.4,3.5,1.4s2.5-0.5,3.5-1.4c1.9-1.9,1.9-5,0-7l-0.3-0.3
	l11-11c1.1-1.3,1.7-2.7,1.7-4.2c0-1.6-0.6-3.1-1.7-4.3l-7.4-7.4l11.2-11.2c0.8-0.8,1.3-1.8,1.4-3l14.8-16.1
	c4.5-5.9,8.1-11.7,10.8-17.2C221.2,124.2,222.2,110.2,217.5,95.9z"/>
<path class="st1" d="M217.5,95.8c-5.6-17.2-18.4-31.6-30.7-45.6l-2.6-2.9c-12.9-14.5-23-26-22.7-39.5V7.7l0.3-1.6l-2.5-3.9l-0.8,5.5
	c-0.3,14.7,10.7,27.1,23.4,41.5l2.6,2.9c12.1,13.7,24.6,27.9,30.1,44.5c4.5,13.5,3.5,26.8-2.9,40.5l0,0c-2.6,5.5-6.2,11.1-10.5,16.7
	l-12.9,13.6l2.2,2.1l12.9-13.7l0.1-0.1c4.4-5.6,7.9-11.3,10.6-16.8l0,0C221.2,124.5,222.2,110.3,217.5,95.8z"/>
<path class="st2" d="M189.5,172.4l-0.4-2.4l-0.9-1.2l-0.3,0.3l-2.5-2.5l-1.6-0.4c1,2.7,0.6,5.8-1.3,8.2l-9.1,9.1l3.3,3.3l11.8-11.8
	c0.3-0.3,0.6-0.7,0.8-1.1L189.5,172.4z"/>
<path class="st2" d="M181,188.8l-1.3,1.3l-6-6c3,3,3.3,7.7,0.9,11.1l-9.5,9.5L165,206l-4.6-4.6c2.9,2.9,3.3,7.5,1.1,10.8l-2.2,2.2
	l0.6,0.6l-3.3-1.8l-6-6c3.1,3.1,3.3,8,0.7,11.4l-8.2,8.2l8.2,8.2l14.3-14.3l0.1,0.1c2.2,2.2,5.6,2.2,7.8,0s2.2-5.6,0-7.8l-0.1-0.1
	l7.7-7.7C185.5,200.6,185.5,193.3,181,188.8z"/>
<path class="st3" d="M185.3,201.2l-0.4-7.5l-0.8,0.8l-5.6-5.6c2.7,2.7,3.1,6.8,1.3,10l-9.8,9.8l2.4,2.4l-1.1,1.1l-5.7-5.7
	c2.9,2.9,3.2,7.3,1,10.5l-2.7,2.7l-2.4-2.4l-0.5,0.5l-5.6-5.6c2.7,2.7,3.1,6.8,1.3,10l-8.4,8.4l3.9,3.9l13-13l5.5,1.1l4.4-4.4
	l-1-5.6L185.3,201.2z"/>
<path class="st4" d="M128.6,211.6l-13.5,13.5c-1-1-1-2.7,0-3.8l11.6-11.6l-1.5-1.5l-11.4,11.4c-2.2,2.2-2.2,5.6,0,7.8s5.7,2.2,7.8,0
	L133,216L128.6,211.6z"/>
<path class="st4" d="M142.4,225.4l-13.5,13.5c-1-1-1-2.7,0-3.8l11.6-11.6L139,222l-11.4,11.4c-2.2,2.2-2.2,5.6,0,7.8l0,0
	c2.2,2.2,5.6,2.2,7.8,0l11.4-11.4L142.4,225.4z"/>
<path class="st5" d="M219.1,95.6c-5.7-17.3-18.5-31.8-30.8-45.8c-13.7-15.5-26.7-30.2-24.7-44.6c0.4-2.7,1.1-5.1,2.3-7.2h-2.5
	c-0.3,0.6-0.6,1.3-0.8,2h-6.3c0.2-0.7,0.4-1.3,0.6-2h-2.3c-0.6,1.8-1,3.8-1.3,5.8c-2.6,19,11.9,35.5,27.2,52.8
	c11.6,13.2,23.6,26.8,28.6,41.9c5.6,16.9,1.6,33.8-12.4,51.8L183,164.8c-1.4,0.2-2.7,0.8-3.8,1.9l-10,10l-6.2-6.2
	c-1.4-1.4-3.4-2.2-5.4-2.2s-4,0.8-5.4,2.2l-10,10c-2.6-1.8-6.1-1.5-8.4,0.8c-2.3,2.3-2.5,5.8-0.8,8.4c0,0,0,0-0.1,0.1L119,203.7
	l4.6,4.6L112.9,219c-1.2,1.2-1.9,2.9-1.9,4.7s0.7,3.4,1.9,4.7s2.9,1.9,4.7,1.9s3.4-0.7,4.7-1.9l10.7-10.7l4.4,4.4l-10.7,10.7
	c-1.2,1.2-1.9,2.9-1.9,4.7s0.7,3.4,1.9,4.7s2.9,1.9,4.7,1.9s3.4-0.7,4.7-1.9l10.7-10.7l4.9,4.9l13.9-13.9c0,0,0,0,0-0.1
	c1.1,0.8,2.4,1.2,3.7,1.2c1.8,0,3.4-0.7,4.7-1.9c2.3-2.3,2.5-5.8,0.8-8.4l10-10c1.4-1.4,2.2-3.4,2.2-5.4s-0.8-4-2.2-5.4l-6.2-6.2
	l10-10c1.1-1.1,1.8-2.5,1.9-4l14.2-15.1l0.1-0.1c4.6-5.9,8.3-11.8,11-17.5c3.5-7.3,5.5-14.7,6.1-21.9
	C222.4,110.2,221.5,102.9,219.1,95.6z M120.9,226.7c-0.8,0.8-1.9,1.3-3.1,1.3s-2.3-0.5-3.1-1.3s-1.3-1.9-1.3-3.1s0.5-2.3,1.3-3.1
	l10.7-10.7l2.5,2.5c1.9,2,2,5.1,0.3,7.3L120.9,226.7z M134.6,240.5c-0.8,0.8-1.9,1.3-3.1,1.3c-1.2,0-2.3-0.5-3.1-1.3
	s-1.3-1.9-1.3-3.1c0-1.2,0.5-2.3,1.3-3.1l10.7-10.7l2.5,2.5c1.9,1.9,2,4.9,0.5,7L134.6,240.5z M151.7,233.1l-29.5-29.5l12.3-12.3
	l2.5,2.5l-9.4,9.4l1.5,1.5l9.4-9.4l25.5,25.5L151.7,233.1z M172.6,219.9c-0.8,0.8-1.9,1.3-3.1,1.3s-2.3-0.5-3.1-1.3l-31-30.9
	c-1.7-1.7-1.7-4.5,0-6.3c1.7-1.7,4.5-1.7,6.3,0l30.9,30.9C174.3,215.4,174.3,218.2,172.6,219.9z M183.3,193.8c1,1,1.6,2.4,1.6,3.9
	s-0.6,2.8-1.6,3.9l-9.9,9.9L147.9,186l10.4-10.4c0.4-0.4,0.4-1.1,0-1.5s-1.1-0.4-1.5,0l-10.4,10.4l-2.5-2.5l9.9-9.9
	c1-1,2.4-1.6,3.9-1.6s2.8,0.6,3.9,1.6L183.3,193.8z M187.1,174.5l-10,10l-6.3-6.3l10-10c1.7-1.7,4.5-1.7,6.3,0
	C188.8,170,188.8,172.8,187.1,174.5z M213.9,138.4L213.9,138.4c-2.7,5.6-6.3,11.3-10.7,17.1l-12.9,13.7c-0.3-0.9-0.8-1.8-1.6-2.5
	c-0.8-0.8-1.8-1.4-2.8-1.7l12.5-13.3l0.1-0.1c7.7-9.9,12.4-19.3,14.3-28.8c1.7-8.4,1.2-16.6-1.6-25.1c-5.1-15.6-17.3-29.3-29.1-42.7
	c-15-17-29.2-33-26.7-51.1c0.1-0.8,0.1-1.1,0.6-2.3c2.8,0.3,5,2.7,5,5.6v0.3c-0.4,15.1,11.7,27.7,25.6,43.5
	c12.2,13.8,24.8,28.2,30.4,45.1C221.7,110.4,220.6,124.2,213.9,138.4z"/>
</svg>
