<?xml version="1.0" encoding="utf-8"?>
<!-- Generator: Adobe Illustrator 25.0.1, SVG Export Plug-In . SVG Version: 6.00 Build 0)  -->
<svg version="1.1" id="Layer_1" xmlns="http://www.w3.org/2000/svg" xmlns:xlink="http://www.w3.org/1999/xlink" x="0px" y="0px"
	 viewBox="0 0 256 256" style="enable-background:new 0 0 256 256;" xml:space="preserve">
<style type="text/css">
	.st0{fill:#FFFFFF;}
	.st1{fill-rule:evenodd;clip-rule:evenodd;fill:#EEEEEE;}
	.st2{fill:#D8D8D8;}
	.st3{fill-rule:evenodd;clip-rule:evenodd;fill:#232327;}
</style>
<path class="st0" d="M178.4,234.6L178.4,234.6c-2.7-6.9-5.9-13-9.4-18c-8.9-13.1-20.3-21.1-35-24.3c-17.5-3.8-36.3-0.2-54.4,3.3
	c-19.8,3.9-40.3,7.9-52.3-1.6c-5.4-4.2-8-9.3-8.3-16c-0.3-6.5,1.8-14.2,6.3-23.1c3.3-6.7,8.4-14.3,14.9-22.6
	c5.9-7.5,15.3-17.4,18.3-20.5c0.1,0,0.1,0,0.2,0c1.2,0,2.6-0.6,3.5-1.4l11.1-11.1l7.3,7.3c1.3,1.1,2.7,1.7,4.2,1.7
	c1.6,0,3.1-0.6,4.3-1.7l14.4-14.4l0.3,0.3c0.9,0.9,2.2,1.4,3.5,1.4c1.3,0,2.5-0.5,3.5-1.5c1.9-2,1.9-5.1,0-7L80,54.6
	c-0.8-0.9-2.1-1.5-3.5-1.5c-1.3,0-2.5,0.5-3.5,1.5c-0.9,1-1.4,2.3-1.4,3.5c0,1.2,0.6,2.6,1.4,3.5l0.3,0.3L59,76.2
	c-1.1,1.3-1.7,2.7-1.7,4.2c0,1.6,0.6,3.1,1.7,4.2l6.1,6.3l1.2,1.2l-11.1,11.1c-0.8,0.8-1.3,1.9-1.4,3.1C40.8,120,11,153.8,12,178
	c0.3,8.6,4,15.7,11,21.3c14.5,11.4,35.6,7.3,58,3c10.9-2.1,24.6-4.8,36.9-4.8c5.3,0,10,0.5,14.4,1.4c8.6,1.9,15.9,5.6,22.2,11.3
	c7.2,6.5,12.8,15.2,17.4,26.7l5.2,17.6l0.4-0.1c2.9-0.4,5-2.8,5.2-5.7l0-0.1L178.4,234.6z"/>
<path class="st1" d="M106.4,79.9l-7.8-6.1c2.9,2.9,3.3,7.5,1.1,10.8l-2.2,2.2l0.6,0.6l-3.3-1.8l-6-6c3.1,3.1,3.3,8,0.7,11.4
	l-12.1,12.1l4.9,5.1l5.8,0.5L103.8,93l0.1,0.1c2.2,2.2,5.6,2.2,7.8,0s2.2-5.6,0-7.8l-0.1-0.1L106.4,79.9z"/>
<path class="st2" d="M109.6,84.1l-5.7-5.7c2.9,2.9,3.2,7.3,1,10.5l-2.7,2.7l-2.4-2.4l-0.5,0.5l-5.6-5.6c2.7,2.7,3.1,6.8,1.3,10
	l-13.3,13.3l6.9,0.9l14.9-14.9l5.5,1.1l4.4-4.4l-0.6-3.2L109.6,84.1z"/>
<path class="st1" d="M183.5,249v-0.3l-4.3-14.3v-0.1c-2.7-6.9-5.9-13-9.4-18.2c-9.1-13.4-20.7-21.5-35.7-24.8
	c-17.7-3.9-36.6-0.2-54.8,3.3c-20.5,4-39.9,7.7-51.5-1.4c-5.1-4-7.7-9-7.9-15.3c-0.2-6.4,1.9-14,6.2-22.6
	c3.5-6.9,8.5-14.4,14.9-22.4c6.2-7.9,12.4-14.5,16.6-18.7l1.7-1.7l-0.2-0.1c1.1,0,2.2-0.5,3.1-1.3L74,99.3L70.7,96l-1.2,1.2
	l-2.7-2.7c1.3,1.3,1.5,3.4,0.6,4.9l-11.7,11.7c0.3,0.3,0.6,0.5,0.9,0.7c-0.2,0.1-0.3,0.3-0.6-0.1l-1.8,1.9
	c-4.1,4.2-9.7,10.3-15.3,17.4c-6.5,8.2-11.6,15.9-15.2,22.9c-4.6,9-6.8,17.1-6.6,24c0.3,7.2,3.2,13,9.1,17.6
	c12.7,10,32.7,6.1,53.9,2c18-3.5,36.6-7.1,53.6-3.3c14.1,3.1,25.2,10.8,33.8,23.5c3.4,5,6.4,10.9,9.1,17.5l5.4,17.4L183.5,249z"/>
<path class="st3" d="M187.3,259.2L180,234v-0.1c-2.7-6.9-5.9-13.1-9.5-18.4c-4.6-6.7-9.9-12.2-15.8-16.4c-6-4.1-12.8-7.1-20.2-8.7
	c-17.8-3.9-36.8-0.2-55.1,3.3c-20.3,3.9-39.6,7.6-51-1.3c-4.9-3.9-7.4-8.7-7.6-14.8c-0.9-22.4,27.4-53.1,38.7-64.4
	c1.5-0.2,2.9-0.8,4-1.9l10-10l6.2,6.2c1.4,1.4,3.4,2.2,5.4,2.2c2.1,0,4-0.8,5.4-2.2l13.2-13.2c1.1,0.8,2.4,1.2,3.7,1.2
	c1.8,0,3.4-0.7,4.7-1.9c2.6-2.6,2.6-6.8,0-9.3L81.2,53.4c-2.6-2.6-6.8-2.6-9.3,0c-1.2,1.2-1.9,2.9-1.9,4.7c0,1.3,0.4,2.6,1.2,3.7
	L57.9,75c-1.5,1.4-2.2,3.4-2.2,5.4c0,2.1,0.8,4,2.2,5.4l6.2,6.2l-10,10c-1,1-1.7,2.3-1.8,3.7c-4.7,4.7-12.3,12.7-19.8,22.3
	c-6.7,8.6-11.9,16.8-15.6,24.4c-4.6,9.5-6.8,18.1-6.5,25.7c0.4,9.2,4.3,16.8,11.6,22.6s16.2,7.8,26,7.8c10.3,0,21.6-2.2,33.3-4.4
	c17.2-3.3,35-6.8,50.6-3.4c17.4,3.8,29.9,15.8,38.4,36.9l7.1,24.6c0.4,1.3,1.3,2.4,2.5,3.1c0.8,0.4,1.6,0.6,2.5,0.6
	c0.5,0,1-0.1,1.5-0.2c1.3-0.4,2.4-1.3,3.1-2.5C187.6,261.9,187.7,260.5,187.3,259.2z M73.4,54.9c0.9-0.9,2-1.3,3.1-1.3
	s2.3,0.4,3.1,1.3l30.8,30.8c1.7,1.7,1.7,4.5,0,6.3l0,0c-0.8,0.8-1.9,1.3-3.1,1.3s-2.3-0.5-3.1-1.3L73.4,61.2c-0.8-0.8-1.3-2-1.3-3.1
	C72.1,56.9,72.6,55.8,73.4,54.9z M59.4,84.3c-1-1-1.6-2.4-1.6-3.9s0.6-2.8,1.6-3.9l13.2-13.2l2.6,2.6L61.9,79.3
	c-0.4,0.4-0.4,1.1,0,1.5s1.1,0.4,1.5,0l13.3-13.3L102,92.9l-13.2,13.2c-1,1-2.4,1.6-3.9,1.6s-2.8-0.6-3.9-1.6l-6.2-6.2l0,0l-9.3-9.3
	l0,0L59.4,84.3z M55.6,103.6l10-10l6.3,6.3l-10,10c-0.8,0.8-2,1.3-3.1,1.3s-2.3-0.5-3.1-1.3C53.9,108.2,53.9,105.3,55.6,103.6z
	 M172.3,236.7c-4.6-11.7-10.4-20.5-17.5-26.9c-6.4-5.8-13.7-9.5-22.4-11.4c-4.7-1-9.5-1.4-14.5-1.4c-12,0-24.7,2.4-37,4.8
	c-22.2,4.3-43.3,8.4-57.6-2.9c-6.8-5.4-10.5-12.4-10.8-20.9c-1-25,27.3-56.5,39.9-69.3c0.3,1,0.8,2,1.7,2.8c0.7,0.7,1.6,1.3,2.5,1.6
	c-4.3,4.4-10.5,11-16.7,18.8c-6.4,8.1-11.5,15.7-15,22.7c-4.5,8.8-6.7,16.6-6.4,23.3c0.3,6.8,3,12.1,8.5,16.4
	c12.1,9.6,31.9,5.8,52.7,1.7c18.1-3.5,36.9-7.1,54.2-3.3c14.5,3.2,25.9,11.1,34.7,24.1c3.5,5.1,6.6,11.1,9.3,17.9l4.3,14
	c-0.2,2.7-2.2,4.8-4.8,5.2L172.3,236.7L172.3,236.7z"/>
</svg>
